<?xml version="1.0" encoding="UTF-8" standalone="no"?>
<!-- Created with Inkscape (http://www.inkscape.org/) -->

<svg
   xmlns:dc="http://purl.org/dc/elements/1.1/"
   xmlns:cc="http://creativecommons.org/ns#"
   xmlns:rdf="http://www.w3.org/1999/02/22-rdf-syntax-ns#"
   xmlns:svg="http://www.w3.org/2000/svg"
   xmlns="http://www.w3.org/2000/svg"
   xmlns:sodipodi="http://sodipodi.sourceforge.net/DTD/sodipodi-0.dtd"
   xmlns:inkscape="http://www.inkscape.org/namespaces/inkscape"
   width="250.61333mm"
   height="246.38mm"
   viewBox="0 0 887.99998 873.00001"
   id="svg2"
   version="1.1"
   inkscape:version="0.91 r13725"
   sodipodi:docname="logo_bw.svg">
  <defs
     id="defs4" />
  <sodipodi:namedview
     id="base"
     pagecolor="#ffffff"
     bordercolor="#666666"
     borderopacity="1.0"
     inkscape:pageopacity="0.0"
     inkscape:pageshadow="2"
     inkscape:zoom="0.35"
     inkscape:cx="-979.71433"
     inkscape:cy="642.21427"
     inkscape:document-units="px"
     inkscape:current-layer="layer1"
     showgrid="false"
     fit-margin-top="0"
     fit-margin-left="0"
     fit-margin-right="0"
     fit-margin-bottom="0"
     inkscape:window-width="1855"
     inkscape:window-height="1056"
     inkscape:window-x="65"
     inkscape:window-y="24"
     inkscape:window-maximized="1" />
  <metadata
     id="metadata7">
    <rdf:RDF>
      <cc:Work
         rdf:about="">
        <dc:format>image/svg+xml</dc:format>
        <dc:type
           rdf:resource="http://purl.org/dc/dcmitype/StillImage" />
        <dc:title />
      </cc:Work>
    </rdf:RDF>
  </metadata>
  <g
     inkscape:label="Layer 1"
     inkscape:groupmode="layer"
     id="layer1"
     transform="translate(-38.857143,-301.57648)">
    <path
       style="fill:#d50032;fill-opacity:0.15686275"
       d="m 484.85714,1167.1969 c 0,-0.8395 0.50892,-2.6433 1.13093,-4.0084 0.95933,-2.1055 0.56597,-3.8956 -2.5923,-11.7971 -4.48969,-11.2324 -4.81583,-11.6667 -8.29498,-11.0445 -4.87964,0.8727 -5.99235,2.7423 -6.75414,11.3481 -0.58925,6.6567 -0.98019,7.9311 -2.34823,7.6547 -1.42349,-0.2876 -1.59493,-1.721 -1.29201,-10.8024 0.1921,-5.7589 0.55691,-10.8095 0.81069,-11.2235 0.25378,-0.414 1.36287,-0.2703 2.46465,0.3194 1.43709,0.7691 2.38097,0.7586 3.3398,-0.037 0.88834,-0.7373 2.96286,-0.8371 6.18608,-0.2976 l 4.84951,0.8116 2.87105,7.2282 c 1.57908,3.9755 3.22989,7.2282 3.66847,7.2282 0.43858,0 1.79401,-3.0375 3.01206,-6.75 2.27801,-6.9431 3.54263,-9.25 5.07086,-9.25 1.70544,0 0.68712,4.6502 -3.94163,17.9993 -3.38206,9.7537 -5.16637,13.5892 -6.43081,13.8233 -1.04383,0.1933 -1.75,-0.2918 -1.75,-1.2022 z m -43.36663,-10.4731 c -2.00008,-2.21 -2.10897,-6.1146 -0.24175,-8.6682 0.95308,-1.3034 3.0802,-2.0727 6.75,-2.4411 4.54453,-0.4563 5.40557,-0.8695 5.66906,-2.7204 0.42944,-3.0164 -2.93726,-4.641 -7.88554,-3.805 -4.24612,0.7174 -5.36316,-0.6727 -1.99088,-2.4774 3.29038,-1.761 9.47018,-1.2387 11.87718,1.0037 2.33929,2.1794 2.81734,7.0945 1.573,16.1729 l -0.61556,4.4911 -6.75108,0.1246 c -5.34491,0.099 -7.09128,-0.2512 -8.38443,-1.6802 z m 10.73449,-3.2621 c 2.23664,-3.1933 0.99558,-5.0439 -3.14383,-4.688 -3.80453,0.3271 -5.91878,2.5499 -4.91456,5.1669 0.93288,2.431 6.24114,2.1156 8.05839,-0.4789 z m 62.36115,4.5105 c -1.39623,-1.3963 -0.70447,-3.1655 3.13393,-8.0151 7.61756,-9.6244 9.20734,-15.978 4.73173,-18.9105 -2.1799,-1.4284 -2.75365,-1.4305 -6.12212,-0.023 -4.53015,1.8928 -4.47255,1.8914 -4.47255,0.1097 0,-2.3385 4.13789,-4.5567 8.5,-4.5567 10.57357,0 12.15783,9.3959 3.53332,20.9553 -2.18668,2.9308 -3.76355,5.6722 -3.50416,6.0919 0.25939,0.4197 3.17144,0.5182 6.47123,0.219 4.98782,-0.4522 5.99961,-0.2824 5.99961,1.007 0,1.0285 -1.26332,1.735 -3.75,2.0972 -9.57877,1.3952 -13.84951,1.6967 -14.52099,1.0253 z m -94.41364,-2.4027 c -3.68744,-1.4857 -4.56952,-4.4735 -3.82012,-12.9394 0.37612,-4.2489 1.04814,-8.3148 1.49338,-9.0352 1.02792,-1.6632 4.39826,-0.469 3.71338,1.3158 -0.27802,0.7245 -0.82744,4.3235 -1.22093,7.9979 -0.79831,7.4544 0.14985,9.6679 4.14136,9.6679 4.02602,0 6.0466,-3.0852 6.8336,-10.4341 0.47409,-4.427 1.21044,-6.8844 2.1736,-7.254 0.80114,-0.3075 1.73523,-0.2804 2.07575,0.06 0.34053,0.3405 0.0409,5.1564 -0.66581,10.702 -1.28674,10.0969 -2.49183,12.4063 -5.30231,10.1614 -0.7013,-0.5602 -2.10365,-0.6391 -3.23727,-0.1822 -2.55463,1.0297 -3.50233,1.0204 -6.18463,-0.06 z m 120.34191,-3.048 c -4.68648,-3.6863 -7.32951,-18.1808 -4.46259,-24.473 1.44553,-3.1726 5.58654,-5.472 9.85444,-5.472 10.88349,0 15.55351,27.159 5.33787,31.0429 -4.00131,1.5213 -7.90816,1.1216 -10.72972,-1.0979 z m 9.83626,-3.1186 c 2.6454,-2.0809 2.73759,-2.4483 2.16161,-8.6164 -0.83961,-8.9912 -3.25475,-13.6226 -7.30909,-14.0162 -5.9843,-0.581 -7.92888,6.1132 -4.81841,16.5873 1.31566,4.4303 4.33954,8.2189 6.56,8.2189 0.35345,0 1.8861,-0.9781 3.40589,-2.1736 z m -146.49354,2.239 c 0,-0.5141 0.67502,-4.1436 1.50006,-8.0657 1.76723,-8.4011 0.96867,-10.9997 -3.38026,-10.9997 -3.92654,0 -5.7446,2.4918 -7.17797,9.8379 -1.12871,5.7848 -2.97857,8.4587 -4.67694,6.7603 -0.70535,-0.7053 2.59934,-18.7605 3.7849,-20.6788 0.45262,-0.7323 1.2401,-0.8445 2.08841,-0.2975 0.74899,0.4829 3.54308,0.8831 6.2091,0.8891 6.39423,0.015 9.13435,2.9768 8.30426,8.9773 -1.43746,10.391 -2.78183,14.5117 -4.73442,14.5117 -1.05443,0 -1.91714,-0.4206 -1.91714,-0.9346 z m 161.67534,-1.7234 c -0.88527,-0.8853 1.23779,-3.342 2.88809,-3.342 0.72519,0 1.60424,-0.4623 1.95343,-1.0273 0.81714,-1.3222 -3.36108,-19.7584 -4.65977,-20.561 -0.54071,-0.3342 -1.77769,0.1114 -2.74884,0.9903 -3.95387,3.5782 -4.32152,0.1933 -0.47547,-4.3774 1.69103,-2.0097 3.37184,-3.0208 4.69896,-2.8268 1.76051,0.2575 2.52488,2.1515 5.16667,12.8022 l 3.10049,12.5 3.26126,0.3179 c 5.13115,0.5001 3.18897,2.4137 -4.42796,4.3626 -7.98905,2.0442 -7.88758,2.0308 -8.75686,1.1615 z m -186.14272,-3.2892 c -0.35786,-0.5791 -2.44455,-1.0528 -4.63709,-1.0528 -2.89918,0 -4.65589,-0.6695 -6.44098,-2.4546 -3.01005,-3.01 -3.06881,-4.4948 -0.31635,-7.994 1.94616,-2.4741 2.64223,-2.6883 7.75,-2.3848 5.3001,0.3149 5.63096,0.1976 5.95677,-2.1106 0.43681,-3.0946 -2.13112,-5.056 -6.61943,-5.056 -4.25463,0 -3.91,-2.3657 0.40773,-2.7989 4.08247,-0.4096 7.94515,1.2258 9.88396,4.1848 1.51688,2.3151 1.46874,3.0416 -0.74391,11.2267 -2.2461,8.3089 -3.78754,10.7914 -5.2407,8.4402 z m -0.57249,-5.5048 c 2.35526,-2.8379 0.84035,-5.048 -3.46013,-5.048 -4.08115,0 -5.42384,1.6501 -4.11596,5.0584 0.71899,1.8737 6.0185,1.8664 7.57609,-0.01 z m 208.21418,0.1375 c -2.5184,-2.6807 -2.80753,-6.4661 -0.70611,-9.2444 2.09866,-2.7747 1.87687,-3.9629 -0.98293,-5.2659 -5.59518,-2.5493 -5.7104,-9.8478 -0.20843,-13.2025 6.73449,-4.1062 13.72316,-1.619 13.72316,4.884 0,2.0588 -0.5625,4.3299 -1.25,5.0469 -1.00564,1.0487 -0.88671,1.5276 0.60833,2.45 5.41886,3.3429 6.64167,4.8561 6.64167,8.219 0,7.796 -12.4986,12.7834 -17.82569,7.1129 z m 10.35781,-2.1345 c 2.48216,-1.0371 3.46788,-2.0806 3.46788,-3.6712 0,-5.4233 -7.3929,-8.0124 -10.4433,-3.6573 -2.15867,3.0819 -1.94571,5.3916 0.66581,7.2208 2.67948,1.8768 2.09937,1.8669 6.30961,0.1077 z m -3.73212,-15.751 c 1.9016,-1.9016 1.45795,-6.5916 -0.73453,-7.765 -2.59119,-1.3867 -6.69718,0.2293 -7.57003,2.9794 -1.33311,4.2002 5.15252,7.9376 8.30456,4.7856 z m -243.6,15 c -2.41865,-2.4187 -1.40077,-3.9283 2.19396,-3.2539 3.34995,0.6284 3.41948,0.5674 5.36348,-4.7047 1.08323,-2.9378 2.96602,-8.374 4.18396,-12.0806 2.30782,-7.0233 3.54537,-8.6741 5.23566,-6.9838 1.15713,1.1572 -5.11594,22.3156 -7.70047,25.973 -1.76946,2.5039 -7.20716,3.1194 -9.27659,1.05 z m 127.8,-35.479 c 0,-0.3735 0.52569,-2.1328 1.1682,-3.9096 1.03594,-2.8649 0.74143,-4.4408 -2.6012,-13.9198 -2.74386,-7.781 -3.4698,-10.9888 -2.6682,-11.7904 1.63793,-1.6379 2.79404,0 5.34855,7.5714 1.23896,3.6729 2.70265,6.7963 3.25265,6.9409 0.55,0.1447 2.29197,-2.9942 3.87105,-6.9753 1.62503,-4.0969 3.46951,-7.2382 4.25,-7.2382 2.19733,0 1.69317,2.2277 -3.74038,16.5273 -4.06818,10.7064 -5.50548,13.4727 -7,13.4727 -1.03437,0 -1.88067,-0.3056 -1.88067,-0.679 z m 18.01518,-2.071 c 0.0613,-3.0282 2.9837,-9.8054 4.34373,-10.0733 2.31224,-0.4556 2.1301,3.509 -0.34795,7.5733 -1.80421,2.9591 -4.0333,4.3538 -3.99578,2.5 z m -33.79267,-6.8067 c -1.98498,-1.3904 -2.22251,-2.4206 -2.22251,-9.6398 0,-6.518 -0.33883,-8.344 -1.75,-9.4308 -1.65059,-1.2711 -1.63042,-1.4478 0.35502,-3.1102 1.15776,-0.9694 2.3955,-2.5874 2.75053,-3.5957 0.85649,-2.4323 2.94638,-1.6283 3.65786,1.4073 0.35372,1.5092 1.40332,2.5466 2.77758,2.7454 3.14632,0.4552 2.73922,2.9866 -0.54099,3.3641 -2.68677,0.3091 -2.75676,0.4833 -3.04397,7.5744 -0.28246,6.9739 -0.19438,7.2959 2.25,8.2253 2.8906,1.099 3.29053,2.5162 0.96218,3.4097 -2.26466,0.869 -2.71716,0.7863 -5.1957,-0.9497 z m -14.64361,-1.3157 c -0.58814,-0.9516 1.214,-20.2538 1.9607,-21.0005 0.20578,-0.2058 1.082,-0.1026 1.94716,0.2294 1.30888,0.5023 1.46449,1.7405 0.92673,7.3736 -0.35546,3.7234 -0.94469,8.3118 -1.30938,10.1964 -0.66669,3.4451 -2.40107,5.02 -3.52521,3.2011 z m 80.11525,0.1752 c -0.26902,-0.4416 -1.02499,-5.9778 -1.67993,-12.3028 -0.65493,-6.325 -1.61139,-11.9378 -2.12545,-12.473 -0.51407,-0.5351 -2.45389,-0.842 -4.31073,-0.682 -3.70928,0.3195 -5.29541,-1.0048 -3.24325,-2.7079 1.70166,-1.4123 20.06088,-1.9838 20.46618,-0.6371 0.16553,0.55 -1.5501,1.3695 -3.81251,1.8212 l -4.11348,0.8212 0.79802,8.1788 c 1.13651,11.6478 1.02328,17.9324 -0.33136,18.3916 -0.6371,0.216 -1.37847,0.032 -1.64749,-0.41 z m -96.19415,-1.0075 c -5.49313,-1.4022 -5.92499,-4.5468 -0.50542,-3.6802 7.29305,1.1662 8.74494,-2.7589 2.45783,-6.6445 -8.16954,-5.0491 -3.88861,-14.9198 5.17359,-11.929 4.97765,1.6427 4.51818,4.165 -0.60936,3.3451 -3.21094,-0.5135 -4.11042,-0.3059 -4.63857,1.0704 -0.46784,1.2192 0.67128,2.9253 3.98336,5.9661 2.55121,2.3423 4.63857,4.9554 4.63857,5.807 0,3.9573 -5.74879,7.278 -10.5,6.0651 z m 114.11426,-1.1104 c -0.27708,-0.4484 -1.4337,-6.4109 -2.57027,-13.25 -1.13657,-6.8392 -2.29749,-13.4573 -2.57981,-14.7069 -0.34266,-1.5166 0.0271,-2.4793 1.11218,-2.8957 2.08647,-0.8006 3.38888,1.2816 3.40833,5.4491 0.0165,3.5274 2.31091,5.323 4.28253,3.3514 2.10685,-2.1069 7.43055,-1.3325 9.57414,1.3926 2.12316,2.6992 4.76002,15.465 3.74224,18.1173 -1.10048,2.8678 -3.36192,-0.3935 -4.12094,-5.943 -0.9406,-6.8771 -1.95592,-9.3582 -4.3552,-10.6422 -1.60064,-0.8566 -2.52082,-0.606 -4.71981,1.2855 l -2.73153,2.3495 1.19186,7.217 c 0.65553,3.9694 0.93134,7.6385 0.61292,8.1537 -0.71294,1.1536 -2.17038,1.2159 -2.84664,0.1217 z m -134.14014,-3.2268 c -0.35415,-0.573 0.12911,-5.3351 1.07391,-10.5824 1.70334,-9.4602 3.0559,-11.7349 5.7147,-9.6112 0.6805,0.5436 2.13727,0.6562 3.23727,0.2503 2.51206,-0.927 4.5,-0.2236 4.5,1.5922 0,0.7889 -1.00239,1.393 -2.31144,1.393 -3.74394,0 -6.42818,3.4005 -7.66974,9.7164 -0.62531,3.181 -1.32123,6.3461 -1.54649,7.0336 -0.49786,1.5195 -2.11823,1.6319 -2.99821,0.2081 z m 161.7822,-1.9869 c -3.41552,-1.3732 -6.2483,-6.8093 -6.25258,-11.9987 -0.005,-5.6407 1.99432,-8.5939 6.78244,-10.0202 5.10106,-1.5196 8.75765,0.023 10.94963,4.6199 1.64084,3.4408 1.63838,3.681 -0.0504,4.9159 -0.97656,0.7141 -3.66777,1.5845 -5.98047,1.9343 -5.66845,0.8573 -7.06892,1.8553 -6.24526,4.4504 0.88843,2.7992 4.77369,3.6735 9.72831,2.189 2.20372,-0.6602 4.27367,-0.9335 4.59988,-0.6073 0.93093,0.9309 -1.95752,3.1729 -5.68705,4.4141 -3.94538,1.3132 -4.80538,1.3244 -7.84446,0.1026 z m 4.99368,-13.5321 c 3.28374,-0.7832 3.54574,-2.7684 0.6345,-4.8075 -3.60423,-2.5245 -9.03438,0.9295 -7.54857,4.8014 0.40219,1.0481 1.33027,1.504 2.40914,1.1834 0.96521,-0.2868 2.99243,-0.8166 4.50493,-1.1773 z m -185.24885,11.8345 c -1.92437,-0.9755 -4.09752,-3.0343 -4.82921,-4.575 -2.86295,-6.0287 1.58703,-15.8279 7.80822,-17.1943 6.56035,-1.4409 12.96525,4.8807 11.37293,11.225 -0.59833,2.3839 -0.84765,2.4592 -5.7393,1.7322 -8.18584,-1.2166 -10.0299,-1.1054 -10.37833,0.6258 -0.55767,2.771 3.01687,5.9137 7.60242,6.684 2.38584,0.4008 4.41084,1.1787 4.5,1.7287 0.28557,1.7615 -6.71773,1.6081 -10.33673,-0.2264 z m 10.60724,-12.6955 c 0.30009,-0.782 0.0451,-2.357 -0.56657,-3.5 -1.35351,-2.529 -7.13929,-2.8705 -9.07699,-0.5357 -1.64029,1.9764 -0.30314,3.3997 4.19252,4.4626 4.81113,1.1374 4.85198,1.1343 5.45104,-0.4269 z m -33.23291,6.2204 c -0.4084,-0.6608 -0.94459,-6.1053 -1.19154,-12.0988 -0.42258,-10.2565 -0.33827,-10.8763 1.43354,-10.5389 1.60387,0.3054 1.95653,1.5412 2.38252,8.3488 0.31614,5.0521 0.92176,7.9904 1.64694,7.9904 0.63082,0 3.23112,-2.8312 5.77844,-6.2915 4.22608,-5.7407 6.57462,-7.1097 6.57462,-3.8323 0,0.6919 -2.74699,4.9404 -6.10442,9.4409 -5.91415,7.9278 -8.76566,9.8201 -10.5201,6.9814 z m 235.01685,-1.2185 c -3.01762,-7.8638 -8.09675,-25.1867 -7.69318,-26.2384 1.27484,-3.3222 5.57067,-1.2695 14.14725,6.7599 5.03598,4.7148 8.76782,7.5366 8.92681,6.75 0.15027,-0.7433 -1.0384,-5.229 -2.64149,-9.9681 -1.83114,-5.4133 -2.59672,-9.1308 -2.05937,-10 1.5412,-2.4928 3.47551,0.9935 7.78719,14.0351 4.15448,12.5661 4.23354,15.0815 0.47402,15.0815 -0.78185,0 -5.56091,-3.9229 -10.62012,-8.7175 -5.73218,-5.4324 -9.29267,-8.1645 -9.44826,-7.25 -0.13733,0.8071 1.03971,5.5175 2.61564,10.4675 1.57593,4.95 2.67088,9.3375 2.43323,9.75 -0.73394,1.2739 -3.34707,0.8275 -3.92172,-0.67 z m -249.94926,-3.8678 c -0.74689,-1.9464 4.17099,-17.5516 6.21217,-19.7122 1.21416,-1.2852 1.54261,-1.297 2.2936,-0.082 0.98956,1.6005 -4.22274,17.6475 -6.49951,20.0098 -1.18967,1.2344 -1.46115,1.2052 -2.00626,-0.2153 z m -10.9284,-3.6885 c -0.36774,-0.595 0.53656,-4.1536 2.00956,-7.908 2.88197,-7.3457 2.94141,-9.7933 0.27854,-11.4701 -3.53373,-2.2253 -6.94927,0.3371 -9.80313,7.3544 -1.57088,3.8626 -3.32437,6.6312 -4.32156,6.8233 -2.40197,0.4628 -2.11784,-1.6637 1.40929,-10.5473 3.91564,-9.8621 4.66042,-10.8142 6.88475,-8.8012 0.92695,0.8388 3.11243,1.5252 4.85662,1.5252 4.16502,0 7.18046,3.0621 7.13938,7.25 -0.037,3.7694 -4.91855,15.9029 -6.62648,16.4705 -0.6371,0.2118 -1.45923,-0.1018 -1.82697,-0.6968 z m 105.48533,-4.0237 c 0,-1.5062 0.52215,-2.0461 1.75,-1.8096 0.9625,0.1853 1.75,0.9996 1.75,1.8096 0,0.8099 -0.7875,1.6243 -1.75,1.8096 -1.22785,0.2365 -1.75,-0.3035 -1.75,-1.8096 z m 185.36504,0.081 c -3.82396,-2.3317 -6.94645,-9.6207 -5.90642,-13.7876 2.07716,-8.3222 12.65714,-10.6249 17.17026,-3.737 2.28608,3.489 1.14249,5.1823 -5.16264,7.6444 -6.55489,2.5595 -7.21079,3.3191 -4.98762,5.7756 2.33258,2.5775 5.89431,2.5743 10.07417,-0.01 2.0834,-1.2876 3.52277,-1.6541 3.92705,-1 1.00203,1.6214 -0.38941,3.0878 -4.85321,5.1148 -5.19691,2.3599 -6.38959,2.3598 -10.26159,-10e-4 z m 5.70228,-13.117 c 2.7556,-1.4747 2.38815,-3.8115 -0.7221,-4.5921 -4.09238,-1.0272 -8.34344,2.5845 -7.04004,5.9811 0.63998,1.6677 2.75924,1.2885 7.76214,-1.389 z m -329.56732,3.4799 c -4.06535,-2.0921 -6.451,-5.3522 -6.47776,-8.8521 -0.0217,-2.8392 7.13311,-19.8927 9.35833,-22.3056 0.7147,-0.7749 1.64509,-0.8888 2.57332,-0.3149 1.20682,0.7461 0.65425,2.5668 -3.25157,10.7138 -2.58801,5.3982 -4.70476,10.749 -4.70389,11.8907 0.002,2.9838 4.09468,6.4243 7.64171,6.4243 3.96388,0 6.17007,-2.5892 10.86403,-12.75 2.75738,-5.9688 4.32063,-8.25 5.65352,-8.25 1.01327,0 1.84231,0.4573 1.84231,1.0163 0,2.7575 -8.99369,19.8336 -11.47329,21.784 -3.27051,2.5726 -7.80651,2.8153 -12.02671,0.6435 z m 347.26899,-0.1938 c -0.84755,-0.9625 -2.73367,-4.1299 -4.19139,-7.0386 -1.69031,-3.3728 -3.5822,-5.6429 -5.22269,-6.2666 -2.11999,-0.806 -2.35771,-1.2365 -1.35193,-2.4484 0.68195,-0.8217 0.94888,-2.5521 0.60502,-3.9221 -0.84117,-3.3515 1.2652,-4.3939 3.33471,-1.6503 1.29883,1.7219 2.26499,2.062 4.36279,1.5354 2.02986,-0.5094 2.6945,-0.3059 2.6945,0.8252 0,0.8258 -0.675,1.7604 -1.5,2.077 -2.18506,0.8385 -1.81251,3.483 1.28736,9.1384 2.22023,4.0505 3.24331,5 5.38778,5 3.64009,0 4.70777,1.3812 2.38216,3.0817 -2.63204,1.9246 -5.92496,1.7844 -7.78831,-0.3317 z m 7.35367,-17.8623 c -4.86803,-9.0799 -6.96487,-13.9455 -6.29747,-14.6129 1.43035,-1.4304 2.91283,-0.2087 5.20942,4.293 1.10332,2.1627 2.28279,3.9322 2.62104,3.9322 0.33826,0 1.65762,-1.125 2.93193,-2.5 2.79608,-3.017 8.30657,-3.4054 10.64073,-0.75 2.4672,2.8067 7.77169,12.7588 7.77169,14.5808 0,3.1586 -2.96288,1.6622 -5.11026,-2.5808 -3.93978,-7.7847 -5.86535,-9.8899 -8.74032,-9.556 -1.71062,0.1987 -3.09169,1.264 -3.93781,3.0376 -1.18507,2.4842 -0.98653,3.3386 2.19103,9.429 1.92181,3.6835 3.26585,7.0668 2.98676,7.5183 -1.43927,2.3288 -3.61102,-0.3769 -10.26674,-12.7912 z m -302.64229,9.5805 c -0.38836,-0.6284 -0.23556,-1.613 0.33954,-2.1881 1.3439,-1.3439 4.47714,-0.1717 3.93038,1.4704 -0.5566,1.6717 -3.38637,2.1473 -4.26992,0.7177 z m -81.82538,-7.797 c -2.41004,-2.663 -2.04527,-5.7456 1.3905,-11.7507 1.85797,-3.2474 2.93028,-6.4005 2.75,-8.0862 -0.2244,-2.0984 0.18569,-2.8568 1.70451,-3.152 1.1,-0.2138 2.81497,-1.1119 3.81105,-1.9958 1.53276,-1.3601 1.94461,-1.3909 2.68022,-0.2006 0.49604,0.8026 0.48364,2.1267 -0.0289,3.0843 -0.64422,1.2038 -0.34185,2.1814 1.06978,3.4589 2.94169,2.6622 2.41493,3.7773 -1.44249,3.0537 -3.2917,-0.6175 -3.51777,-0.452 -6.5,4.7604 -3.42176,5.9806 -3.84088,8.4313 -1.58969,9.2952 2.12628,0.8159 1.865,3.3616 -0.34501,3.3616 -1.01476,0 -2.58976,-0.8229 -3.5,-1.8288 z m 410.46632,-5.923 c -6.05332,-6.3634 -6.25892,-12.635 -0.56113,-17.1169 3.79285,-2.9834 8.52847,-2.7699 11.83187,0.5335 1.46562,1.4656 2.50891,3.1531 2.31843,3.75 -0.19049,0.5968 -2.51043,2.5148 -5.15541,4.2622 -6.65167,4.3943 -6.94816,4.787 -5.04793,6.6873 2.34683,2.3468 5.88459,2.0184 9.31049,-0.8643 3.35079,-2.8195 5.18237,-3.1909 5.18237,-1.0509 0,2.1802 -6.32784,6.5675 -10.43335,7.2338 -3.26345,0.5296 -3.99542,0.1919 -7.44534,-3.4347 z m 4.89856,-9.7608 c 4.61238,-2.9116 4.93143,-4.0969 1.52109,-5.6507 -1.96918,-0.8972 -2.9652,-0.7888 -5,0.5445 -2.40385,1.5751 -3.43322,5.3932 -1.87429,6.9521 0.94002,0.94 0.9401,0.94 5.3532,-1.8459 z m -428.61673,7.1208 c -0.28664,-0.747 1.3054,-4.1842 3.53785,-7.6382 2.23246,-3.4541 4.05901,-7.0203 4.05901,-7.9251 0,-2.4335 -2.04308,-4.0449 -5.12857,-4.0449 -3.17092,0 -4.55775,1.2138 -8.49197,7.4324 -3.09425,4.891 -5.1484,6.3333 -5.97013,4.1919 -0.63338,-1.6506 15.35244,-26.62432 17.04236,-26.62432 2.47111,0 2.48308,1.43559 0.0466,5.59302 -2.98597,5.0952 -3.11561,6.407 -0.63319,6.407 3.13504,0 7.13486,3.8554 7.13486,6.8773 0,2.8938 -7.57211,15.7445 -9.7754,16.59 -0.71517,0.2744 -1.53483,-0.1122 -1.82146,-0.8591 z m 447.3984,-7.3582 c -2.74966,-3.19 -9.80154,-14.1224 -9.80154,-15.1951 0,-0.5802 0.5625,-1.0509 1.25,-1.0459 0.6875,0 2.45967,-1.4575 3.93815,-3.25 2.1277,-2.5795 2.94631,-3.0033 3.92637,-2.0326 0.9835,0.974 0.89337,1.6074 -0.43815,3.0787 -2.67027,2.9506 -2.04557,7.3235 1.82363,12.7657 1.925,2.7075 3.5,5.4867 3.5,6.176 0,1.8234 -2.44826,1.5337 -4.19846,-0.4968 z m -471.9875,-9.1249 c -2.57357,-2.2995 -3.19679,-3.6057 -3.11399,-6.5268 0.12944,-4.5665 4.31171,-10.28746 8.93177,-12.21785 2.90232,-1.21266 3.84114,-1.20969 6.78769,0.0215 3.77285,1.5764 6.07057,4.87858 5.11937,7.35735 -0.50404,1.3135 -1.1398,1.0285 -3.52063,-1.5781 -3.69974,-4.05074 -5.39863,-4.00079 -9.68415,0.2847 -2.78787,2.7879 -3.4041,4.1084 -3.15,6.75 0.24803,2.5785 1.00952,3.6064 3.54426,4.7841 1.77559,0.825 3.23809,2.0625 3.25,2.75 0.0394,2.2778 -4.89582,1.2956 -8.16432,-1.6248 z m 477.86601,-11.2498 c -5.23133,-7.15805 -8.59217,-12.66195 -8.26013,-13.52722 0.3611,-0.94102 1.07557,-1.17019 2.0129,-0.64563 1.84203,1.03085 18.56718,23.73345 18.56718,25.20285 0,0.6021 -0.7875,1.082 -1.75,1.0666 -1.06636,-0.017 -5.19553,-4.7427 -10.56995,-12.0966 z m 14.97494,3.2959 c -2.51461,-2.7786 -2.01412,-6.6926 1.34501,-10.51844 3.52608,-4.01598 3.70484,-5.2052 1,-6.65278 -2.48306,-1.32889 -5.04855,-0.10104 -7.45148,3.56629 -1.26559,1.93154 -2.03332,2.34891 -2.8389,1.54333 -1.51437,-1.51437 1.92538,-6.09587 6.22231,-8.28768 4.51269,-2.30186 6.89284,-1.03413 13.06207,6.95721 4.71615,6.10908 5.40893,8.22077 2.69698,8.22087 -0.65504,0 -2.44766,1.575 -3.98361,3.5 -3.18878,3.9965 -7.32567,4.6842 -10.05238,1.6712 z m 9.00526,-5.1079 c 0.83996,-1.69106 0.90347,-3.00999 0.20756,-4.31032 -1.3149,-2.4569 -3.67092,-1.90314 -6.1726,1.45082 -1.70108,2.2806 -1.80963,2.9534 -0.69349,4.2983 1.83377,2.2095 5.2086,1.4803 6.65853,-1.4388 z m -516.16025,1.7724 c -4.66532,-2.57392 -7.5,-6.19192 -7.5,-9.57247 0,-6.58523 5.93096,-13.24997 11.79966,-13.25951 5.0552,-0.008 10.20034,4.78178 10.20034,9.49626 0,2.31454 -2.168,6.35049 -3.73414,6.95148 -0.83489,0.32037 -3.62409,-1.159 -6.49518,-3.44499 -5.74787,-4.57652 -6.31408,-4.72818 -7.73564,-2.07196 -1.53825,2.87425 0.2371,6.43847 4.44316,8.9201 2.00136,1.18079 3.36095,2.59659 3.0213,3.14619 -0.77347,1.2515 -1.4852,1.2221 -3.9995,-0.1651 z m 10.31038,-14.03166 c 0.37663,-3.25065 -3.549,-6.33918 -6.76142,-5.3196 -2.75216,0.8735 -2.58013,2.35168 0.6683,5.74231 3.25948,3.40216 5.66933,3.23498 6.09312,-0.42271 z m 514.35643,-0.0481 c -9.2219,-9.68444 -10.80704,-12.75596 -6.58304,-12.75596 0.80615,0 1.88451,-1.10147 2.39635,-2.4477 1.26178,-3.31876 5.43519,-5.91586 8.33636,-5.18772 2.83231,0.71087 13.68352,11.86157 13.68352,14.06118 0,2.90513 -2.81093,1.6125 -7.17245,-3.29832 -5.93233,-6.67944 -8.19634,-7.75865 -10.80463,-5.15036 -3.0464,3.0464 -2.48013,5.66876 2.47708,11.47124 2.475,2.89702 4.5,5.75473 4.5,6.35048 0,2.77808 -2.24019,1.78052 -6.83319,-3.04285 z m -296.16681,-4.37435 c -70.73922,-8.23028 -128.30654,-35.57101 -176.52702,-83.83885 -8.81486,-8.82352 -19.38986,-20.45071 -23.5,-25.8382 -7.01164,-9.19072 -7.65818,-9.76298 -10.47298,-9.26969 -9.78367,1.71458 -21.48765,1.76864 -28.83862,0.13321 -27.32184,-6.07854 -47.62665,-31.04804 -47.62665,-58.56808 0,-18.35742 10.46358,-39.02033 24.81331,-49 2.76796,-1.925 5.21803,-3.95 5.44462,-4.5 0.22658,-0.55 -0.40599,-5.725 -1.40571,-11.5 -3.17653,-18.34949 -4.45515,-44.66938 -3.0972,-63.75481 4.33037,-60.86163 24.19622,-113.19683 61.20688,-161.24519 9.71581,-12.61336 37.94283,-40.60023 50.7937,-50.36156 32.05799,-24.35077 68.20407,-41.9015 105.4224,-51.18786 7.858,-1.96065 14.87898,-3.87662 15.60219,-4.2577 0.7232,-0.38108 2.47634,-3.61788 3.89587,-7.19288 7.11212,-17.91151 22.42985,-31.56243 41.03977,-36.57401 7.53757,-2.02984 23.03725,-2.00899 30.65724,0.0412 9.80818,2.63898 19.40493,8.31265 27.0922,16.01711 7.35082,7.36726 11.17941,13.47522 14.81842,23.64066 l 2.19075,6.11978 11.99542,3.28079 c 48.56599,13.28296 95.13382,40.51809 128.55262,75.18382 34.07538,35.34679 54.84159,68.69622 69.61041,111.7906 14.48887,42.27755 18.91446,93.77094 11.79921,137.2884 -1.61926,9.90354 -2.35501,8.53983 7.66741,14.2116 12.21142,6.91055 22.65548,20.20099 27.1112,34.5 2.82218,9.05675 2.98908,24.19377 0.36384,33 -8.34704,27.99976 -33.16056,45.81822 -61.60032,44.23486 -5.81248,-0.3236 -11.79821,-1.33637 -15.3979,-2.60528 -3.23892,-1.14173 -6.25008,-1.85268 -6.69147,-1.57988 -0.4414,0.27279 -4.49904,5.32321 -9.01699,11.22315 -10.31734,13.47329 -38.22138,41.35654 -51.41057,51.37227 -39.88761,30.29024 -83.15147,48.94102 -132.16995,56.97767 -10.41103,1.7069 -18.08716,2.15521 -40.82208,2.38411 -15.4,0.15506 -29.575,0.0987 -31.5,-0.12529 z m 66.23659,-20.38957 c 29.78154,-4.4148 56.34894,-12.84517 83.26378,-26.42129 25.63639,-12.93125 45.88638,-27.32896 66.74659,-47.45671 14.0704,-13.57636 31.15663,-34.04378 29.665,-35.53541 -0.27622,-0.27623 -4.51113,0.60074 -9.41092,1.9488 -26.71786,7.35082 -59.05304,7.33593 -86.13608,-0.0397 -11.84129,-3.22477 -13.50625,-3.14986 -20.23415,0.91039 -9.2188,5.5635 -13.11439,7.60184 -14.52834,7.60184 -0.73518,0 -2.49631,-1.6875 -3.91361,-3.75 -2.46296,-3.58417 -14.48036,-16.26934 -18.09028,-19.0955 -1.40758,-1.10198 -1.59927,-2.30078 -1.05917,-6.62363 l 0.65946,-5.27814 -18.53324,-18.62636 c -10.19328,-10.24451 -18.90052,-18.62103 -19.34943,-18.6145 -1.84667,0.0269 -11.02484,2.88102 -13.8162,4.29646 -1.65,0.83668 -6.8525,2.30927 -11.56111,3.27242 l -8.5611,1.75118 -5.4389,-2.69393 c -5.90107,-2.92285 -11.24249,-7.44688 -14.96551,-12.67539 -2.06425,-2.89897 -2.37699,-4.53079 -2.47051,-12.89087 -0.0969,-8.66054 0.16095,-10.08734 2.70853,-14.98782 1.54859,-2.97884 4.60954,-7.07222 6.80211,-9.09639 2.85516,-2.63587 3.98649,-4.48907 3.98649,-6.53017 0,-3.75641 4.4592,-10.07319 7.97654,-11.29934 2.46358,-0.85881 3.1799,-2.18429 6.01425,-11.12896 1.76967,-5.58471 2.96994,-10.40166 2.66728,-10.70432 -0.76085,-0.76086 -4.64974,5.79268 -4.65433,7.84347 -0.007,3.29481 -1.25082,4.78752 -4.49499,5.39613 -5.22404,0.98003 -7.50875,-0.8404 -7.50875,-5.98289 0,-4.67543 1.11815,-5.53719 7.22432,-5.5678 1.9981,-0.01 3.13102,-0.80012 4.25,-2.96399 1.957,-3.78442 1.92197,-5.57022 -0.17905,-9.12696 -1.66118,-2.81216 -1.63971,-2.95659 0.84084,-5.65429 2.55602,-2.77973 6.86389,-9.45531 6.86389,-10.6364 0,-0.34759 -1.05526,-0.63197 -2.34501,-0.63197 -1.28976,0 -3.02474,-0.7875 -3.85551,-1.75 -1.33764,-1.54973 -19.79948,-73.03879 -19.79948,-76.66873 0,-1.79588 2.70543,-4.58127 4.44975,-4.58127 0.71878,0 7.97235,4.02358 16.11904,8.9413 8.14669,4.91771 15.21633,8.6915 15.71033,8.3862 1.44787,-0.89484 9.62381,-18.29317 10.30648,-21.9321 0.54914,-2.92714 0.0768,-3.97159 -3.90271,-8.62964 -5.56492,-6.51381 -5.83665,-7.4315 -2.68289,-9.06055 2.85392,-1.47417 2.96052,-3.29851 0.7925,-13.56327 -1.1958,-5.66171 -1.72345,-6.56069 -4.81769,-8.20809 -1.91114,-1.01751 -4.79286,-1.86888 -6.40381,-1.89193 -1.96806,-0.0282 -3.94424,-1.10817 -6.02356,-3.29192 -3.52926,-3.70653 -8.45723,-6.73534 -13.54744,-8.32647 -2.56295,-0.80114 -3.58236,-1.74055 -3.80764,-3.50879 -0.1692,-1.32811 -1.5192,-3.44404 -3,-4.70206 l -2.69236,-2.28733 2.26549,-1.88551 c 3.05986,-2.54665 12.71333,-2.46387 16.11937,0.13822 2.94943,2.25326 7.91766,2.34899 10.96955,0.21136 2.1744,-1.52301 2.64683,-1.43423 8.68985,1.63305 3.5165,1.78488 8.0916,3.29621 10.17309,3.36057 l 3.78265,0.11696 -0.20249,-5 c -0.29352,-7.24795 -4.68966,-21.48884 -10.21328,-33.085 l -4.8038,-10.08501 -10.39022,-0.0682 c -8.29456,-0.0544 -12.01958,-0.58977 -18.46862,-2.6543 -20.37811,-6.52365 -36.10151,-23.17821 -41.33382,-43.78167 -1.01167,-3.98369 -2.32555,-7.40513 -2.91973,-7.60319 -1.48987,-0.49662 -17.57404,3.96763 -31.82119,8.83216 -15.73755,5.3734 -42.98987,18.8778 -57.84685,28.66498 -31.62389,20.83252 -57.43438,46.56692 -78.75374,78.52156 -3.76437,5.64224 -10.85471,18.35862 -15.75632,28.25862 -12.74312,25.73785 -19.67001,46.86584 -24.58902,75 -4.43985,25.39362 -4.48378,66.00722 -0.0952,87.97896 l 1.19423,5.97895 11.41994,-0.15693 c 8.29282,-0.11397 11.62383,-0.51895 12.16451,-1.47896 0.4095,-0.72711 3.09461,-4.47202 5.96689,-8.32202 20.45386,-27.41628 45.23512,-45.78552 79.69866,-59.07706 7.23643,-2.79087 9.79973,-5.18289 4.39583,-4.10211 -3.31014,0.66209 -5.14578,-0.75982 -5.14578,-3.98598 0,-1.24587 -1.36507,-3.81994 -3.0335,-5.72017 -1.66842,-1.90023 -3.73361,-5.5097 -4.58932,-8.02106 -1.61018,-4.72563 -6.28116,-9.59404 -9.20391,-9.59294 -3.36878,10e-4 -12.93928,8.70577 -15.35032,13.96133 -1.27119,2.77092 -2.65138,5.03804 -3.0671,5.03804 -1.10402,0 -0.92469,-15.9245 0.22445,-19.93133 0.53917,-1.87996 2.07232,-4.57699 3.407,-5.99339 1.33469,-1.41641 3.63296,-5.50028 5.10727,-9.07528 3.4411,-8.34417 8.49194,-17.452 12.41522,-22.3875 1.69961,-2.13813 3.09021,-4.84638 3.09021,-6.01834 0,-1.92441 2.3458,-5.33259 10.63697,-15.45432 1.51385,-1.84808 3.90234,-3.85515 5.30774,-4.46015 1.40541,-0.605 4.07701,-2.39368 5.93689,-3.97484 3.36952,-2.86457 3.42377,-2.87364 15.19426,-2.53984 l 11.81267,0.33499 3.30574,-3 c 4.21926,-3.82904 6.75992,-5.22917 11.77194,-6.48737 2.21858,-0.55695 5.89256,-1.4781 8.16439,-2.04701 4.07984,-1.02167 8.79836,-3.42497 18.17839,-9.25887 3.84841,-2.39352 5.49882,-4.36078 8.26257,-9.84885 2.33227,-4.63127 4.03393,-6.8579 5.24101,-6.8579 0.98309,0 2.29448,-0.50705 2.91421,-1.12678 0.64363,-0.64363 2.24727,-0.84557 3.73987,-0.47095 2.35342,0.59067 2.54983,0.99298 1.97658,4.04865 -0.66606,3.55042 -0.90718,3.28679 8.39808,9.18212 0.18771,0.11893 0.0506,1.13217 -0.30471,2.25164 -0.41009,1.29209 -3.73223,3.53608 -9.09693,6.14465 -10.37561,5.04513 -14.08207,8.06602 -14.9947,12.2212 -0.38613,1.75806 -1.76921,4.88695 -3.07351,6.9531 -1.3043,2.06614 -2.37146,4.45469 -2.37146,5.30788 0,0.85319 -0.69164,1.81667 -1.53699,2.14106 -2.55719,0.98128 -4.54435,6.09121 -5.0412,12.96331 -0.39537,5.46842 -0.14739,6.91753 1.55387,9.08034 2.84481,3.61658 2.65703,6.30378 -0.4405,6.30378 -1.37585,0 -2.90278,-0.81836 -3.45615,-1.85233 -0.76145,-1.42279 -2.64231,-2.00576 -8.1111,-2.51403 -6.16561,-0.57304 -7.49511,-0.39445 -9.92056,1.33263 -3.05817,2.17761 -6.2966,8.07025 -5.94005,10.80849 0.43288,3.32437 -1.41642,11.6851 -3.24948,14.69098 -3.8566,6.32412 -1.54974,9.68585 4.82018,7.02432 1.96143,-0.81953 4.82861,-1.49006 6.37152,-1.49006 1.89385,0 3.47515,-0.89348 4.867,-2.75 3.51366,-4.6867 4.11696,-5.25 5.62289,-5.25 1.92075,0 1.84668,2.12247 -0.22576,6.46841 -1.62861,3.41523 -1.61224,3.63648 0.47821,6.46396 2.06471,2.79267 2.09164,3.10216 0.58392,6.71065 -1.24393,2.97713 -1.35494,4.5183 -0.52117,7.23497 0.5827,1.89861 0.82722,3.82776 0.54339,4.28701 -0.95752,1.5493 -5.07487,0.84956 -6.90583,-1.17364 -0.99979,-1.10474 -3.59904,-2.54231 -5.77613,-3.19458 -3.52704,-1.05672 -4.10857,-0.98048 -5.3372,0.69977 -1.71509,2.34553 -1.7345,3.63483 -0.0886,5.88573 1.05617,1.4444 3.69905,1.92428 14.56707,2.64503 7.30224,0.48427 14.08309,1.13639 15.06856,1.44917 0.98546,0.31277 2.23812,-0.004 2.78369,-0.7039 0.54557,-0.69992 1.7749,-7.12258 2.73185,-14.27258 2.21869,-16.57724 3.09754,-20.59202 4.73496,-21.63018 1.9547,-1.23932 2.38207,-1.11223 5.72833,1.70346 2.03941,1.71605 3.71406,2.3651 5.02707,1.94837 2.61247,-0.82917 6.52402,-7.28487 6.27044,-10.34886 -0.11096,-1.34064 0.69815,-3.89357 1.79802,-5.67319 1.09986,-1.77962 1.99975,-4.40422 1.99975,-5.83245 0,-3.57174 2.88051,-4.84642 10.13899,-4.48669 4.44639,0.22036 6.28769,0.74828 6.95432,1.99389 1.2138,2.268 1.15455,7.55443 -0.0933,8.32565 -0.55,0.33992 -1,2.09673 -1,3.90403 0,2.01109 -0.7725,3.9851 -1.99107,5.08789 -1.09509,0.99104 -3.13906,3.76079 -4.54216,6.15499 -1.53108,2.6126 -3.27996,4.35309 -4.37407,4.35309 -1.00264,0 -2.96715,0.9 -4.36557,2 -1.39842,1.1 -3.23255,2 -4.07584,2 -4.24641,0 -4.03973,0.34009 19.65612,32.34399 14.01839,18.9334 15.60894,21.70635 13.92728,24.28069 -1.29293,1.97923 -63.34991,47.37532 -64.76263,47.37532 -0.74726,0 -1.98308,-0.89148 -2.74626,-1.98107 -1.19782,-1.71013 -1.0596,-4.25851 1.01058,-18.63272 1.62407,-11.27666 2.0702,-16.97962 1.38211,-17.66771 -0.55884,-0.55884 -5.20162,-1.36728 -10.31728,-1.79655 -40.3855,-3.38881 -82.03351,14.70715 -107.92626,46.8937 -3.34512,4.15823 -6.29022,8.10293 -6.54467,8.76601 -0.25445,0.66308 1.54432,4.13705 3.99726,7.71994 16.49467,24.09293 13.84213,54.82813 -6.58801,76.33575 -6.23429,6.56308 -6.92122,7.66464 -6.00923,9.6364 1.81132,3.91616 19.56832,23.89395 30.45257,34.26114 18.86463,17.96847 39.97719,32.82519 63.80438,44.89859 32.83599,16.63821 64.99521,25.51228 105.01274,28.97739 10.68512,0.92522 43.07651,-0.46799 56.23659,-2.41883 z M 347.14925,898.71416 c -5.37147,-5.47093 -7.92285,-9.1777 -8.69854,-12.63768 -0.36992,-1.65 -2.2189,-5.025 -4.10885,-7.5 -8.86193,-11.6052 -10.94451,-15.36175 -11.61662,-20.95406 -2.24214,-18.65567 -3.0193,-23.50551 -5.15335,-32.159 -1.30388,-5.28718 -3.2356,-10.9658 -4.29272,-12.61916 -1.05712,-1.65336 -4.48941,-6.79664 -7.62731,-11.42951 -5.31816,-7.85185 -5.96079,-9.45465 -9.47094,-23.62181 -3.65791,-14.76355 -3.71642,-15.28176 -2.04472,-18.11173 0.94652,-1.60232 1.72094,-3.64252 1.72094,-4.53377 0,-0.89126 1.0125,-2.00642 2.25,-2.47815 3.42305,-1.30486 7.8126,-6.15579 8.44881,-9.33686 0.40776,-2.03881 1.54394,-3.24837 4.02512,-4.28507 4.43987,-1.8551 5.4439,-1.25546 12.248,7.31484 3.00955,3.79078 7.02327,8.02122 8.91936,9.40097 2.32662,1.69305 5.11697,5.72809 8.58258,12.41098 4.43985,8.5616 5.84305,10.37621 10.3637,13.40233 5.33598,3.5719 9.14403,8.2034 9.15584,11.13569 0.004,0.89963 -0.64337,2.8885 -1.43777,4.41971 -1.879,3.62177 -0.77924,5.64322 4.87199,8.95506 2.96319,1.73654 5.17677,2.37595 6.80802,1.96653 1.99063,-0.49961 3.05707,0.17425 6.04347,3.81876 3.15216,3.8468 4.38519,4.57473 9.43023,5.56729 3.69985,0.7279 7.597,2.41668 10.74999,4.65838 8.19831,5.82878 8.45023,7.68254 1.89733,13.96132 -4.59142,4.39935 -4.6366,4.50587 -4.04182,9.5279 0.8131,6.86531 -0.56737,9.55635 -5.55124,10.82139 -2.19929,0.55824 -4.60225,0.78338 -5.33992,0.50031 -2.09902,-0.80547 -8.33205,1.6279 -9.43137,3.682 -0.54577,1.0198 -0.99232,2.82822 -0.99232,4.01871 0,3.71111 -5.43315,7.81853 -10.79925,8.16417 -4.29671,0.27676 -4.72795,0.53915 -5.01717,3.05278 -0.21051,1.82949 -0.90103,2.75 -2.06291,2.75 -2.2295,0 -7.12067,5.06025 -7.12067,7.36682 0,2.8978 3.10405,11.47464 4.60302,12.71868 0.76834,0.63766 1.39698,1.77929 1.39698,2.53694 0,2.4967 -2.85551,1.43895 -6.70789,-2.48476 z M 295.45157,686.96197 c -0.87305,-2.27513 -0.72391,-6.18743 0.25903,-6.79492 0.92107,-0.56925 7.14656,1.50286 7.14651,2.37867 -2e-5,0.29192 -1.53252,1.75354 -3.40557,3.24804 -2.83788,2.26435 -3.50462,2.45908 -3.99997,1.16821 z m 179.87453,-0.43571 c -0.95021,-1.53748 0.35135,-2.52947 1.63484,-1.24598 0.71818,0.71818 0.73543,1.27752 0.0524,1.69964 -0.55992,0.34605 -1.31919,0.1419 -1.68727,-0.45366 z m -60.46896,-76.44978 c 0,-0.825 0.45,-1.5 1,-1.5 0.55,0 1,0.675 1,1.5 0,0.825 -0.45,1.5 -1,1.5 -0.55,0 -1,-0.675 -1,-1.5 z m -5,-20.40638 c 0,-2.41405 0.33879,-2.81778 2,-2.38337 2.25394,0.58942 2.58875,2.301 0.8,4.08975 -1.93127,1.93127 -2.8,1.40185 -2.8,-1.70638 z M 486.069,518.43142 c 0.59631,-1.8015 5.47473,-4.50168 6.42192,-3.5545 0.97868,0.97869 -1.50761,3.2966 -4.50209,4.19718 -1.75755,0.52857 -2.25265,0.36283 -1.91983,-0.64268 z M 244.31559,856.04529 c 22.24403,-5.79384 38.54155,-26.56861 38.54155,-49.12969 0,-14.78237 -4.86622,-26.42416 -15.40773,-36.86092 -8.2295,-8.14772 -15.32307,-11.94968 -26.67491,-14.29698 -6.61587,-1.36802 -9.0193,-1.42783 -16.07137,-0.39998 -32.31263,4.70961 -52.41491,37.17299 -41.88347,67.63803 5.33909,15.44474 19.57472,28.81191 35.14211,32.99821 7.15308,1.92357 19.07662,1.9468 26.35382,0.0513 z m 516.08145,7.4e-4 c 9.76499,-2.50748 16.47408,-6.33972 23.71041,-13.54341 18.38328,-18.30037 20.53569,-46.05437 5.18847,-66.9021 -10.96031,-14.88853 -30.20064,-22.9342 -48.28674,-20.19193 -20.24975,3.07033 -37.59528,18.41499 -42.61913,37.70285 -8.37493,32.15351 15.92833,64.09 49.00699,64.39923 3.87195,0.0362 9.72195,-0.62289 13,-1.46464 z m -90.51367,-3.50967 c 10.19121,-1.25092 29.73566,-5.76559 30.53101,-7.0525 0.31308,-0.50657 -0.47173,-2.37533 -1.74401,-4.15281 -1.27227,-1.77748 -3.71036,-5.93691 -5.41796,-9.24318 -3.48209,-6.74204 -3.157,-6.64691 -13.89527,-4.06593 -10.72949,2.57888 -37.56083,3.19345 -49.5,1.13379 -21.05971,-3.63307 -43.19173,-12.99345 -59.09221,-24.9921 -15.70638,-11.85218 -31.16643,-30.34306 -40.06855,-47.92368 -4.75424,-9.38904 -4.3635,-10.06209 9.91076,-17.07132 6.7375,-3.30838 12.25,-6.50892 12.25,-7.11231 0,-0.6034 -12.60932,-5.3457 -28.0207,-10.53846 -23.69412,-7.98357 -28.16492,-9.21197 -28.95473,-7.95561 -1.69709,2.69957 -19.14368,55.22845 -18.54279,55.82934 0.32373,0.32373 6.38988,-2.28463 13.48033,-5.79635 10.83514,-5.36636 13.13854,-6.18011 14.43881,-5.10099 0.85089,0.70618 3.6534,5.17607 6.2278,9.9331 18.69182,34.53914 46.95032,60.14666 81.60574,73.95014 11.24824,4.48026 27.02248,8.62548 38.26554,10.0556 9.9798,1.26943 28.6186,1.31939 38.52623,0.10327 z m 1.59278,-31.49882 c 4.88454,-0.84642 10.56849,-1.98877 12.63099,-2.53855 l 3.75,-0.9996 0,-10.06711 c 0,-11.85002 1.7209,-19.36282 6.70446,-29.26922 4.488,-8.92129 16.1331,-20.759 24.98159,-25.39478 7.28874,-3.81862 19.67816,-7.1918 26.4149,-7.1918 2.62956,0 5.0722,-0.47114 5.42808,-1.04697 3.77029,-6.10045 5.75904,-57.32456 3.04591,-78.45303 -3.27889,-25.53433 -8.16612,-43.33328 -6.98332,-25.43279 l 0.55721,8.43279 -2.57442,-2.80576 c -1.41592,-1.54317 -2.57441,-3.76899 -2.57441,-4.94625 0,-1.17727 -1.11313,-3.74673 -2.47362,-5.70992 -1.70777,-2.46432 -3.98226,-9.75669 -7.3464,-23.55375 -3.097,-12.70146 -6.02204,-22.25161 -8.02638,-26.2058 -1.73448,-3.42182 -3.1536,-6.65896 -3.1536,-7.19365 0,-0.53469 -2.58582,-5.38502 -5.74626,-10.77852 -3.16044,-5.39349 -5.80419,-11.04385 -5.875,-12.55635 -0.0708,-1.5125 -0.18499,-3.61392 -0.25374,-4.66981 -0.0688,-1.0559 -2.6545,-4.3184 -5.7461,-7.25 -7.16485,-6.79404 -10.72115,-12.34639 -10.56518,-16.49513 0.10152,-2.70057 -1.22221,-4.71461 -8.23307,-12.52651 -4.59472,-5.1197 -10.54252,-11.41293 -13.21734,-13.98496 -8.03334,-7.72461 -29.67988,-24.82359 -31.42555,-24.82359 -0.89528,0 -2.48503,-0.95391 -3.53277,-2.1198 -4.34899,-4.83939 -26.73927,-17.56287 -43.72798,-24.84883 -12.1309,-5.20258 -32.85517,-12.41136 -38.9893,-13.56213 l -3.44572,-0.64642 -1.2544,5.33859 c -1.64546,7.00296 -5.87708,16.14102 -10.29917,22.24079 l -3.5539,4.9022 5.05986,10.08294 c 5.34739,10.65593 11.65773,28.75658 13.80995,39.61266 0.70875,3.575 1.92587,7.24155 2.70472,8.14788 0.77885,0.90634 4.70385,2.42214 8.72222,3.36845 l 7.30613,1.72056 1.29585,5.40169 c 1.03099,4.29767 1.9499,5.80592 4.496,7.3795 4.64533,2.87097 8.79822,3.4972 10.39921,1.56812 0.72404,-0.87241 2.39244,-1.5862 3.70755,-1.5862 2.385,0 3.04752,-0.24683 9.03027,-3.36429 2.46203,-1.2829 3.77522,-1.41835 5.90408,-0.60896 5.53551,2.1046 14.31037,8.24101 17.5742,12.28994 3.47159,4.30667 8.85544,14.64099 8.85544,16.99803 0,2.83179 6.41088,10.95901 9.74281,12.35118 3.0925,1.29213 3.67744,1.23749 6.691,-0.625 4.93412,-3.04945 7.13523,-2.61851 10.52474,2.06057 4.41027,6.08821 4.43523,6.93556 0.40425,13.72697 -3.14483,5.29841 -4.07285,6.17156 -6.55945,6.17156 -2.14587,0 -3.32709,0.75049 -4.55864,2.89633 -1.23185,2.14638 -2.61349,3.02392 -5.33589,3.38907 -2.02049,0.27101 -4.96404,1.12247 -6.54122,1.89215 -2.76252,1.34812 -2.85666,1.63092 -2.56898,7.71718 0.20861,4.41359 0.90697,7.14061 2.31702,9.04781 1.11012,1.50151 3.28932,7.75321 4.84266,13.89266 2.70408,10.68758 3.06297,11.42046 8.43299,17.22072 6.07636,6.56319 6.9522,8.94408 3.29021,8.94408 -4.1196,0 -13.01339,-3.13226 -17.33359,-6.10464 -4.68352,-3.22235 -7.48463,-3.64047 -9.34791,-1.39536 -0.68469,0.825 -2.55424,1.5 -4.15456,1.5 -5.77647,0 -9.31368,2.44189 -13.77904,9.51229 -2.34559,3.71397 -5.87459,8.36257 -7.84223,10.33021 -3.17444,3.17444 -4.35961,3.66109 -10.51871,4.31919 -12.82644,1.3705 -14.58741,7.64707 -3.45098,12.30017 5.84736,2.44318 9.51591,1.99545 12.84431,-1.56762 1.59567,-1.70816 2.90121,-3.73316 2.90121,-4.5 0,-0.9176 1.15666,-1.39424 3.38337,-1.39424 3.48493,0 4.54986,1.4997 4.61562,6.5 0.0921,7.00244 -9.90105,32.5 -12.73757,32.5 -0.73832,0 -2.56168,-0.87579 -4.05191,-1.94621 -1.49023,-1.07041 -5.52324,-2.8756 -8.96224,-4.01154 -3.43899,-1.13594 -9.72779,-3.69231 -13.97509,-5.68083 -4.2473,-1.98852 -9.02161,-3.67082 -10.60958,-3.73845 -3.56664,-0.15191 -5.68487,2.51837 -4.0671,5.12703 1.34818,2.17395 12.0161,8.88265 15.42958,9.70315 1.3888,0.33383 4.83605,2.35606 7.66056,4.49385 7.23392,5.47515 7.86562,5.71702 16.92925,6.48199 l 8.1149,0.68489 4.04931,-4.60027 c 2.43975,-2.77169 4.31701,-4.16712 4.72277,-3.51058 0.37041,0.59933 0.68889,4.16416 0.70775,7.92186 0.0316,6.28886 -0.63926,9.2875 -5.37402,24.02235 -1.79035,5.57169 -3.76155,14.36382 -3.79998,16.94906 -0.0221,1.48387 1.6336,4.18082 4.34827,7.08303 6.41776,6.8611 6.91435,11.12191 2.20064,18.88152 -4.3068,7.08976 -4.42916,8.55648 -0.83453,10.00359 13.9109,5.60017 40.91132,7.70842 58.86901,4.59662 z M 635.4113,801.42931 c -0.62164,-6.30859 -0.47571,-7.37572 1.24368,-9.09511 1.93059,-1.9306 1.95408,-1.89887 2.63636,3.56192 0.80848,6.47088 -0.12991,12.68036 -1.91628,12.68036 -0.82949,0 -1.49994,-2.44013 -1.96376,-7.14717 z m 48.72197,-181.19074 c 0.80075,-2.42209 8.20392,-6.65002 11.21568,-6.40525 4.38756,0.3566 4.5867,3.40562 0.33515,5.13126 -4.77762,1.93917 -12.03538,2.73965 -11.55083,1.27399 z m 5.28057,-31.8846 c -0.85618,-1.22237 -1.5567,-2.60636 -1.5567,-3.07552 0,-0.46916 -1.9108,-4.08154 -4.24621,-8.0275 -8.12635,-13.73041 -8.54053,-16.87304 -1.19509,-9.06789 8.62623,9.16611 10.4413,12.21579 10.4413,17.54346 0,5.28745 -1.02978,6.07323 -3.4433,2.62745 z M 657.1843,500.88392 c -1.69647,-0.61137 -8.96575,-10.382 -9.82623,-13.20741 l -0.7309,-2.39997 3.23571,2.30402 c 5.29096,3.7675 9.99426,8.93009 9.99426,10.97024 0,2.14492 -0.93364,2.95989 -2.67284,2.33312 z M 278.46197,748.95328 c 28.10679,-34.25859 72.14775,-52.7692 115.56781,-48.57368 14.87904,1.43771 16.58682,1.86366 17.37039,4.33245 0.3351,1.0558 -0.18565,7.74657 -1.15721,14.86837 -0.97156,7.12181 -1.47807,13.23715 -1.12556,13.58965 0.96201,0.96202 47.19816,-33.53666 47.50413,-35.44477 0.25708,-1.6032 -32.86512,-47.32845 -34.74814,-47.96986 -1.13323,-0.38601 -1.46388,1.04583 -3.60879,15.62745 -1.92494,13.08618 -2.91942,14.68715 -8.56274,13.78475 -52.1751,-8.34313 -102.12321,7.46623 -138.428,43.81465 -7.87763,7.8871 -20.41672,23.1468 -20.41672,24.84654 0,0.31587 3.35703,2.23305 7.46007,4.2604 4.10303,2.02735 7.98313,4.31635 8.62244,5.08667 0.63931,0.77032 1.71695,1.40058 2.39477,1.40058 0.67781,0 4.78521,-4.33044 9.12755,-9.6232 z m 273.93311,-33.48512 c 6.39844,-3.61106 7.46342,-5.1926 7.45832,-11.07594 -0.007,-8.23926 -6.21286,-13.87446 -10.10914,-9.17973 -0.74677,0.8998 -3.10971,2.74196 -5.25098,4.09368 l -3.89321,2.45768 -2.03495,-2.03495 -2.03496,-2.03495 2.81881,-3.69564 c 1.55034,-2.03261 5.67391,-5.76626 9.16349,-8.29701 9.31348,-6.75442 8.30837,-11.09027 -3.05796,-13.19146 -5.99119,-1.10753 -8.59736,-0.29237 -8.59736,2.68908 0,0.85093 -1.10007,1.37756 -2.87756,1.37756 -4.41875,0 -5.37819,1.98238 -4.97677,10.2829 0.32896,6.80201 0.15596,7.56258 -2.41644,10.62323 -2.72083,3.23727 -2.8173,3.26619 -5.35322,1.60459 -1.42035,-0.93065 -5.52329,-2.75878 -9.11766,-4.06251 -7.15235,-2.59426 -8.80983,-2.30788 -11.63979,2.01118 -0.91556,1.39734 -2.32929,2.54061 -3.14161,2.54061 -0.81232,0 -1.47695,0.60482 -1.47695,1.34404 0,1.54128 43.8225,17.52722 48.26515,17.60657 1.52083,0.0272 5.24358,-1.34935 8.27279,-3.05893 z m 25.90536,-41.11419 c 2.3272,-3.32255 1.97515,-7.4572 -0.78917,-9.26846 -1.29024,-0.84539 -2.85559,-2.65577 -3.47857,-4.02305 -0.91601,-2.01043 -1.85414,-2.48477 -4.90412,-2.47966 -3.10972,0.005 -4.05999,0.51358 -5.41604,2.8974 -1.03124,1.81283 -2.80278,3.14545 -4.75,3.57313 -1.70797,0.37513 -3.10193,1.20881 -3.0977,1.85261 0.009,1.39729 7.1929,5.67054 9.53269,5.67054 0.90428,0 2.78832,0.9 4.18674,2 3.33685,2.62477 6.78348,2.53678 8.71617,-0.22251 z m -31.62992,-15.28353 c 2.14814,-0.78481 0.72671,-1.95989 -10.17714,-8.41333 -5.71263,-3.38102 -11.2209,-7.0692 -12.24061,-8.19595 -1.81064,-2.00074 -1.79862,-2.14614 0.51393,-6.21667 11.11415,-19.56302 17.99162,-36.76707 21.47397,-53.71731 6.72135,-32.71593 2.47988,-67.78926 -11.93678,-98.70703 -2.37388,-5.09097 -4.94068,-9.49598 -5.704,-9.78889 -0.76332,-0.29291 -4.49806,1.28493 -8.29943,3.50633 -3.80137,2.22139 -7.42612,4.03889 -8.05501,4.03889 -0.62888,0 -1.67244,0.63742 -2.31901,1.4165 -0.93058,1.12128 -0.36034,3.04912 2.73607,9.25 18.31018,36.66802 18.1094,81.40108 -0.53295,118.73534 -6.27129,12.55926 -9.11732,16.59816 -11.69598,16.59816 -1.18679,0 -6.99943,-2.95368 -12.91697,-6.56372 -5.91755,-3.61005 -11.37423,-6.42255 -12.12596,-6.25 -1.05845,0.24295 0.22813,6.74292 5.70327,28.81372 3.88852,15.675 7.48072,28.76992 7.98267,29.09983 0.72772,0.4783 52.5575,-11.76586 57.59393,-13.60587 z m -190.56338,10.85133 c 2.2092,-0.60604 2.29524,-2.34529 0.11602,-2.34529 -2.75149,0 -9.36602,2.26247 -9.36602,3.2036 0,0.80444 4.81866,0.35732 9.25,-0.85831 z m 11.75,-2.34529 c 0,-0.55 -0.9,-1 -2,-1 -1.1,0 -2,0.45 -2,1 0,0.55 0.9,1 2,1 1.1,0 2,-0.45 2,-1 z m 196.98469,-11.75 c -0.0492,-2.41039 -5.2901,-5.79732 -7.17147,-4.63456 -0.75157,0.46449 -0.1427,1.51028 1.77067,3.04127 2.87665,2.30178 5.43065,3.05523 5.4008,1.59329 z M 502.72572,475.12384 c 17.61791,-4.68917 31.98961,-19.06087 36.67878,-36.67878 1.666,-6.2594 1.84896,-18.43646 0.37323,-24.84077 -2.76585,-12.00317 -11.49937,-24.20463 -22.34846,-31.2227 -15.12263,-9.78254 -35.23637,-10.5757 -52.066,-2.05316 -6.41968,3.25093 -17.50325,14.3345 -20.75418,20.75417 -6.13174,12.10848 -7.57912,27.36752 -3.76671,39.71067 5.06613,16.40221 20.32312,30.84201 36.63319,34.67105 6.03599,1.41704 19.31989,1.23792 25.25015,-0.34048 z M 206.85714,982.49807 c 0,-1.6461 13.15209,-15.92159 14.66865,-15.92159 0.73224,0 1.33135,0.69841 1.33135,1.55202 0,0.85361 1.31392,2.01005 2.91983,2.56988 3.13357,1.09237 4.65652,3.40386 2.94114,4.46402 -0.57842,0.35749 -2.0991,0.0894 -3.37928,-0.59572 -3.51204,-1.87959 -6.95203,-0.47317 -11.03752,4.51263 -3.38892,4.13573 -7.44417,5.99811 -7.44417,3.41876 z m -8.4433,-7.1441 c -2.49053,-3.55574 -1.87242,-5.56338 3.4433,-11.18397 3.47944,-3.679 5,-6.11418 5,-8.00753 0,-2.28694 0.32655,-2.61712 2.04799,-2.07076 1.12639,0.3575 2.69566,0.11248 3.48726,-0.54449 0.79161,-0.65697 2.16876,-0.91456 3.06035,-0.57243 1.44653,0.55509 1.46238,0.86426 0.14717,2.87152 -1.30096,1.98551 -1.29726,2.5155 0.0315,4.51668 1.94567,2.93033 0.90281,3.9138 -2.32077,2.18859 -2.424,-1.29729 -2.78759,-1.11717 -7.7381,3.83333 -4.62407,4.62408 -5.05843,5.41259 -3.95497,7.17951 0.68178,1.09171 1.2396,2.44103 1.2396,2.99849 0,1.83436 -2.85596,1.05731 -4.4433,-1.20894 z m 575.9433,-3.64819 c -4.72523,-2.93472 -7.52939,-6.53559 -8.17164,-10.4933 -0.5286,-3.25739 -0.20107,-4.0199 3.0396,-7.07624 1.99762,-1.884 3.63204,-3.77175 3.63204,-4.195 0,-0.42325 -1.43912,-2.25434 -3.19805,-4.0691 -2.50867,-2.58828 -2.93624,-3.56137 -1.9835,-4.51411 0.95273,-0.95273 3.58222,1.14578 12.19805,9.7349 10.56708,10.53432 12.65166,13.48355 9.53042,13.48355 -0.7992,0 -2.17088,1.51265 -3.04819,3.36144 -1.48221,3.12352 -4.96876,5.64361 -7.79578,5.63482 -0.66162,-0.002 -2.55295,-0.84219 -4.20295,-1.86696 z m 7.86952,-3.41024 c 1.02544,-0.74982 1.79169,-2.68417 1.84801,-4.66523 0.0741,-2.60753 -0.63196,-4.03493 -3.07643,-6.21906 -3.70924,-3.31421 -7.11631,-3.62463 -9.60463,-0.87506 -2.42209,2.67637 -1.39843,6.0763 2.98941,9.92887 3.90432,3.42803 5.23437,3.73843 7.84364,1.83048 z M 180.73949,956.69413 c -4.17394,-4.17395 -5.04231,-8.44215 -2.59691,-12.7644 1.86377,-3.29424 15.30529,-15.35325 17.11343,-15.35325 3.22745,0 1.41978,2.86398 -6.39887,10.13806 -6.60813,6.14787 -8,7.97088 -8,10.47805 0,3.71755 3.58727,7.38389 7.22465,7.38389 2.6588,0 9.78023,-5.09009 15.21244,-10.87319 2.98692,-3.17985 6.56291,-4.17972 6.56291,-1.83502 0,1.3505 -5.39271,6.78731 -12.93,13.03573 -6.263,5.19204 -10.84514,5.13264 -16.18765,-0.20987 z m 613.11765,-0.0407 c 0,-0.50769 1.34939,-2.27247 2.99865,-3.92172 3.85026,-3.85027 3.18082,-6.61791 -1.39117,-5.75146 -9.51324,1.80288 -10.24982,1.81106 -11.9284,0.13248 -2.57813,-2.57812 -2.0474,-6.32174 1.38246,-9.7516 2.24742,-2.24742 3.35737,-2.76571 4.17404,-1.94904 0.81666,0.81666 0.38126,1.79018 -1.63737,3.66098 -1.51242,1.40167 -2.56122,3.10085 -2.33066,3.77596 0.44058,1.2901 4.87451,1.36585 10.5219,0.17976 6.96898,-1.46365 9.77306,6.13905 4.28747,11.62464 -2.82535,2.82536 -6.07692,3.89549 -6.07692,2 z M 46.52381,716.90981 c -1.20416,-1.20416 -0.69828,-4.07498 1.08333,-6.14782 1.57658,-1.83428 3.97974,-2.19522 24.25,-3.64222 24.99561,-1.78432 29,-2.26047 29,-3.44829 0,-0.44791 -9.91366,-5.45723 -22.03037,-11.13181 -12.1167,-5.67459 -22.9167,-10.93824 -24,-11.69701 -2.43685,-1.70684 -2.51996,-4.39612 -0.21963,-7.10673 1.58416,-1.86671 4.16637,-2.26087 27.24864,-4.15942 14.02425,-1.15351 25.85001,-2.44868 26.27947,-2.87814 0.42947,-0.42946 -9.46992,-5.65507 -21.99863,-11.61247 -12.52871,-5.95739 -23.59389,-11.58604 -24.58929,-12.50811 -2.35112,-2.17792 -1.36915,-7.00131 1.42536,-7.00131 2.46542,0 55.06038,26.30213 56.80962,28.40983 1.40425,1.69202 0.91835,8.14665 -0.73796,9.80296 -0.48696,0.48697 -11.40724,1.79224 -24.26726,2.9006 -12.86003,1.10836 -23.58544,2.21877 -23.83424,2.46757 -0.95445,0.95445 1.98815,2.56761 19.91429,10.91726 24.09479,11.22287 23.36826,10.71957 22.69711,15.72336 -0.2966,2.21132 -1.01311,4.49442 -1.59223,5.07355 -0.57913,0.57912 -14.45214,2.30883 -30.82892,3.84379 -33.06442,3.09906 -33.66647,3.13723 -34.60929,2.19441 z m 841.36335,-16.57204 c -4.2456,-2.21808 -7.03186,-7.44494 -7.01471,-13.15917 0.0166,-5.52888 0.68355,-7.2601 2.99415,-7.77194 1.19481,-0.26467 1.49054,0.88881 1.49054,5.81381 0,7.47478 2.14685,10.62614 6.9177,10.15453 3.34257,-0.33042 4.33692,-1.76456 7.67023,-11.06275 1.51053,-4.21361 2.83932,-6.16391 4.93958,-7.25 6.72366,-3.47693 12.80108,-0.54977 14.87881,7.16633 1.33865,4.97136 0.13397,9.8479 -2.43278,9.8479 -1.62969,0 -1.84664,-0.67673 -1.61516,-5.0381 0.32274,-6.08066 -2.0769,-9.12584 -6.34678,-8.05417 -2.62659,0.65923 -3.72791,2.52297 -7.02239,11.8838 -2.44106,6.93595 -8.9976,10.32312 -14.45919,7.46976 z m -9.69419,-28.32851 c -0.33077,-0.86197 -0.17481,-1.9938 0.34658,-2.51519 0.52138,-0.52138 6.75453,-2.53953 13.85145,-4.48478 7.09692,-1.94526 13.10508,-3.73842 13.35148,-3.98482 1.07856,-1.07855 -1.51431,-1.63141 -15.85029,-3.3796 -8.37267,-1.02101 -15.67544,-2.30878 -16.22838,-2.86172 -2.04945,-2.04945 0.57877,-4.92493 12.48731,-13.66214 8.03176,-5.89284 11.62552,-9.07781 10.50858,-9.3132 -0.93359,-0.19675 -6.6637,1.02071 -12.73357,2.70547 -6.06988,1.68476 -11.91697,3.0632 -12.99355,3.0632 -2.60511,0 -3.64563,-1.87323 -1.94376,-3.49934 1.72412,-1.64737 31.34666,-9.7198 34.15257,-9.3069 2.76163,0.40638 3.99943,4.95622 2.09,7.68231 -0.77795,1.11068 -6.14399,5.48968 -11.92454,9.73112 -5.78054,4.24143 -10.34864,8.19603 -10.15132,8.78799 0.39985,1.19955 3.47342,1.79835 18.49841,3.60391 6.19952,0.745 10.87506,1.81562 11.75,2.69057 2.24731,2.24731 1.81715,6.19736 -0.7968,7.31677 -2.66859,1.14282 -31.28153,8.99357 -32.77806,8.99357 -0.56909,0 -1.30534,-0.70525 -1.63611,-1.56722 z M 102.60714,633.9157 c -13.65432,-4.4625 -16.75,-5.81598 -16.75,-7.32339 0,-2.71703 1.75633,-2.88158 8.47518,-0.79403 29.92672,9.29825 28.66213,8.8032 28.33465,11.09223 -0.17041,1.19105 -0.98483,2.24066 -1.80983,2.33247 -0.825,0.0918 -9.0375,-2.29646 -18.25,-5.30728 z m 759.32269,-15.30696 c -4.22086,-10.94504 -4.13541,-11.48905 2.17731,-13.86221 2.8875,-1.08551 10.18591,-3.83188 16.21869,-6.10306 6.03278,-2.27117 11.64668,-3.99884 12.47533,-3.83925 2.13587,0.41133 8.19388,16.86348 6.8248,18.53459 -1.58762,1.93787 -3.22848,-0.0154 -5.69443,-6.77845 -1.2,-3.29113 -2.72015,-5.974 -3.37811,-5.96192 -1.38475,0.0254 -9.69628,3.68784 -9.69628,4.2726 0,0.21579 0.88288,2.95848 1.96196,6.09487 1.72526,5.01456 1.77747,5.77333 0.43278,6.28934 -1.9626,0.75311 -2.67726,-0.12738 -4.81216,-5.92877 -0.9614,-2.6125 -2.30561,-4.75 -2.98715,-4.75 -1.9752,0 -10.54138,3.10353 -11.11126,4.02562 -0.28499,0.46112 0.54564,3.6815 1.84585,7.15639 1.30021,3.4749 2.17036,6.88049 1.93367,7.56799 -1.07522,3.12305 -3.34636,0.65867 -6.191,-6.71774 z m -753.5427,0.87786 c -17.44006,-6.89864 -18.56252,-7.68534 -16.17165,-11.33427 1.93152,-2.94786 2.15447,-3.00825 18.54417,-5.02295 6.82137,-0.83851 12.64137,-1.76345 12.93333,-2.0554 0.96808,-0.96808 -1.23149,-2.0995 -12.58584,-6.47388 -8.51519,-3.28057 -11.25,-4.76828 -11.25,-6.11989 0,-0.98213 0.43518,-2.05465 0.96707,-2.38337 1.46893,-0.90785 33.18353,11.72891 34.42253,13.71574 0.8475,1.35904 0.65128,2.16202 -0.90348,3.69713 -1.53573,1.51633 -4.82068,2.31343 -14.48612,3.51509 -17.3072,2.15173 -19.39559,2.55691 -18.38025,3.56607 0.48414,0.48119 6.27439,2.95829 12.86723,5.50467 12.33129,4.76276 14.16975,5.9847 12.33338,8.1974 -1.50343,1.81152 -1.67233,1.76713 -18.29037,-4.80634 z m 741.80584,-29.47734 c -0.33077,-0.86197 -0.20414,-1.95398 0.28139,-2.4267 0.48553,-0.47271 6.95778,-3.61498 14.38278,-6.98282 7.425,-3.36783 13.85014,-6.47345 14.27808,-6.90138 0.42794,-0.42792 -0.10702,-2.75497 -1.18881,-5.17123 -1.46473,-3.27158 -1.68531,-4.73246 -0.86398,-5.72211 1.70115,-2.04976 3.10156,-0.0833 8.71171,12.23301 3.68933,8.0994 4.70235,11.26808 3.90829,12.22487 -1.43435,1.72827 -2.49436,0.92179 -4.84529,-3.68642 -1.08428,-2.12537 -2.31535,-4.07577 -2.73571,-4.33422 -0.42036,-0.25845 -7.06429,2.40145 -14.76429,5.9109 -7.7,3.50945 -14.57662,6.39038 -15.28138,6.40207 -0.70477,0.0117 -1.55202,-0.684 -1.88279,-1.54597 z M 128.0064,577.08941 c -7.34291,-3.58211 -13.89074,-6.51293 -14.55074,-6.51293 -0.65999,0 -2.18381,2.025 -3.38625,4.5 -2.20891,4.54659 -5.21227,6.06739 -5.21227,2.63932 0,-2.90693 9.80552,-23.12746 11.53747,-23.79207 2.43373,-0.93391 2.98467,0.45251 1.56603,3.94092 -3.08893,7.59564 -3.67996,6.89831 12.37459,14.60043 11.60262,5.56631 14.61005,7.41519 14.34029,8.81595 -0.18774,0.97487 -1.01118,1.89597 -1.82986,2.04689 -0.81869,0.15093 -7.49635,-2.65641 -14.83926,-6.23851 z m 712.39789,-8.60567 c -5.29341,-4.64768 -7.52904,-14.91416 -3.41819,-15.69706 1.24378,-0.23687 1.79474,0.79534 2.3301,4.36534 0.80314,5.35572 4.18805,9.42446 7.8405,9.42446 4.09395,0 5.46542,-2.73514 5.85348,-11.67364 0.30293,-6.97757 0.70693,-8.5484 2.76084,-10.73469 5.31768,-5.66041 13.35257,-3.80416 17.10736,3.95221 2.39078,4.93869 2.47856,6.79644 0.40254,8.51937 -1.30629,1.08413 -1.73178,1.06229 -2.48468,-0.12755 -0.49966,-0.78964 -0.91537,-2.38751 -0.92379,-3.55084 -0.0203,-2.80194 -3.70214,-7.38486 -5.9329,-7.38486 -3.37549,0 -5.57469,3.80904 -5.69053,9.8561 -0.18566,9.6923 -0.31926,10.22513 -3.31496,13.22082 -4.14388,4.14389 -9.69067,4.07912 -14.52977,-0.16966 z M 136.10714,555.95299 c -11.60453,-6.52853 -15.25,-9.05045 -15.25,-10.54989 0,-1.90797 3.34111,-8.38995 7.27711,-14.11806 1.52495,-2.21929 2.2046,-2.55367 3.31591,-1.63137 1.17397,0.97431 0.89884,2.09623 -1.71813,7.00617 -1.71377,3.21535 -2.85862,6.51663 -2.54413,7.33619 0.31449,0.81955 2.39353,2.41947 4.62008,3.55537 l 4.04829,2.06528 3.53116,-5.5201 c 1.94214,-3.03605 3.94078,-5.5201 4.44142,-5.5201 2.091,0 1.95148,2.21806 -0.43586,6.92926 -1.39472,2.75234 -2.53585,5.45024 -2.53585,5.99534 0,1.2179 8.11564,6.0754 10.15043,6.0754 0.8111,0 2.9934,-2.7 4.84957,-6 3.21273,-5.71177 5.14104,-7.19884 6.49471,-5.00856 0.99527,1.61038 -8.51371,18.05638 -10.3997,17.98652 -0.32725,-0.0121 -7.45751,-3.88277 -15.84501,-8.60145 z m 688.41667,-14.04318 c -1.63487,-1.63486 -0.25739,-3.53674 5.29,-7.3039 4.95534,-3.36512 6.99391,-5.73299 12.12709,-14.08611 4.24608,-6.90957 6.67297,-9.94424 7.78185,-9.73069 2.88097,0.55483 2.28129,3.23252 -2.31204,10.32367 -5.33757,8.2401 -5.65474,9.83779 -1.80357,9.08523 1.5125,-0.29555 5.78174,-0.83311 9.48721,-1.19458 5.77133,-0.56298 6.82976,-0.41602 7.38278,1.02514 0.35507,0.92529 0.24832,2.05574 -0.23721,2.51211 -0.48553,0.45636 -6.02701,1.32221 -12.3144,1.92409 -10.27874,0.98397 -12.02562,1.44819 -17.32167,4.60302 -6.13194,3.65278 -6.97334,3.94873 -8.08004,2.84202 z M 151.1967,530.14205 c -7.78824,-5.2067 -14.47021,-9.96795 -14.84882,-10.58055 -1.00174,-1.62085 6.02871,-11.71406 9.79276,-14.0589 5.82786,-3.6305 13.12908,-0.0334 14.60783,7.19695 0.59295,2.8992 1.10927,3.38546 3.64967,3.43725 5.45924,0.11128 13.28874,1.59469 14.99255,2.84055 1.58264,1.15726 1.58088,1.34184 -0.028,2.95075 -0.94394,0.94395 -2.45635,1.50698 -3.36089,1.25119 -0.90455,-0.25579 -4.29077,-0.99014 -7.52495,-1.63189 -5.33903,-1.05942 -6.12147,-0.98678 -8.5,0.78905 -3.96944,2.96361 -3.29347,5.19504 2.88032,9.50823 5.34771,3.73608 7.04711,6.91577 4,7.48426 -0.825,0.15392 -7.8722,-3.98018 -15.66044,-9.18689 z m 4.11572,-10.72912 c 1.62557,-3.02616 1.75777,-4.07344 0.78401,-6.21061 -2.3444,-5.14541 -9.22505,-4.47301 -12.52629,1.2241 l -1.787,3.08391 4.23549,3.06817 c 2.32952,1.6875 4.93367,2.93457 5.787,2.77128 0.85333,-0.1633 2.43139,-1.93488 3.50679,-3.93685 z m 649.81565,2.12561 c -6.82939,-3.47254 -13.01138,-11.75839 -14.73727,-19.7527 -0.8452,-3.91495 1.4712,-8.20936 4.42812,-8.20936 1.49593,0 2.05955,0.95943 2.57231,4.37875 0.9552,6.36975 5.63811,14.00055 9.80552,15.97812 4.36846,2.07297 6.13879,2.06432 9.71371,-0.0474 4.95697,-2.92815 5.51159,-5.96832 3.42811,-18.79122 -1.75453,-10.79838 -1.7584,-11.50445 -0.087,-15.88107 5.93189,-15.53245 24.94597,-14.63538 33.01529,1.55763 3.34244,6.70741 3.3593,10.25521 0.059,12.41764 -3.05398,2.00104 -3.37816,1.73712 -4.6121,-3.7547 -1.34859,-6.00216 -4.29854,-10.36497 -8.2886,-12.25838 -4.09639,-1.94386 -7.29179,-1.03735 -10.43677,2.96085 -2.47504,3.14651 -2.6099,6.44465 -0.63132,15.43982 2.02147,9.19016 1.8635,14.58093 -0.55329,18.88102 -4.59704,8.17934 -15.24978,11.3654 -23.67578,7.08104 z m -92.91227,-11.2394 c -7.3167,-7.55127 -21.35866,-24.12673 -21.35866,-25.21227 0,-0.43124 2.14861,1.22569 4.77468,3.68208 2.62607,2.45638 5.9623,5.24431 7.41385,6.1954 1.45154,0.95109 3.34463,3.21591 4.20686,5.03293 0.86224,1.81702 2.25643,3.87528 3.09822,4.5739 2.18379,1.81238 8.82845,11.01657 8.32007,11.52495 -0.23411,0.23412 -3.13887,-2.37453 -6.45502,-5.79699 z M 193.68369,490.14858 c -31.41531,-16.35259 -44.34872,-23.542 -44.61021,-24.79786 -0.15602,-0.7493 0.87554,-2.45138 2.29235,-3.7824 2.00266,-1.8814 2.95608,-2.18971 4.28366,-1.3852 8.56426,5.18997 45.41806,24.51628 45.87649,24.05785 0.32565,-0.32564 -5.54162,-10.4305 -13.03838,-22.45523 -7.49675,-12.02473 -13.63046,-22.53758 -13.63046,-23.36189 0,-1.56221 4.0076,-5.84737 5.46863,-5.84737 0.46185,0 9.88284,4.89247 20.93555,10.87215 28.72987,15.5433 26.98448,14.7221 26.38032,12.41176 -0.27543,-1.05323 -6.4437,-11.64821 -13.70728,-23.54439 -11.216,-18.36941 -13.0462,-21.92897 -12.14292,-23.61675 1.39245,-2.60183 5.03569,-3.76475 6.20232,-1.97978 6.33431,9.69156 30.86338,53.28541 30.86338,54.85138 0,2.48035 -4.21776,7.00563 -6.52956,7.00563 -0.89125,0 -10.77795,-4.95 -21.97044,-11 -11.19249,-6.05 -20.60873,-11 -20.92499,-11 -1.49523,0 0.26351,3.27822 11.42499,21.29576 6.6,10.65412 12,20.02095 12,20.81518 0,1.94838 -2.67416,5.64431 -4.97473,6.87554 -1.49145,0.7982 -4.37885,-0.30285 -14.19872,-5.41438 z m 584.18398,-10.05941 c -1.06552,-1.28388 -0.90036,-2.86519 0.9504,-9.09949 1.23201,-4.15007 1.95502,-7.83058 1.60668,-8.17893 -0.34835,-0.34834 -3.20606,-0.0351 -6.35048,0.69617 -8.81858,2.05077 -11.71713,1.95054 -11.71713,-0.40517 0,-1.67002 1.43488,-2.3077 9.2994,-4.13273 5.11467,-1.1869 9.54153,-2.40014 9.83747,-2.69608 0.29595,-0.29594 1.73622,-4.70094 3.20061,-9.78887 2.72519,-9.46853 4.24126,-11.49749 6.05658,-8.10554 0.75916,1.4185 0.49283,3.81991 -1.01426,9.14547 -1.12405,3.97203 -1.81148,7.45413 -1.52762,7.73799 0.28386,0.28386 3.93219,-0.28923 8.10741,-1.27354 6.94124,-1.6364 7.72756,-1.65339 9.18252,-0.19843 1.45496,1.45496 1.43137,1.67346 -0.27545,2.55165 -1.02666,0.52823 -5.24166,1.75466 -9.36666,2.72538 -4.125,0.97073 -7.95,2.17835 -8.5,2.6836 -0.55,0.50526 -2.12512,5.0228 -3.50028,10.039 -2.5685,9.36924 -3.74656,11.00172 -5.98919,8.29952 z m -27.67994,-26.76269 c -6.13857,-5.52732 -7.29033,-6.78512 -7.31528,-7.98881 -0.0326,-1.57507 23.20362,-26.76119 24.6894,-26.76119 2.03245,0 14.29529,10.74471 14.29529,12.52555 0,2.85841 -1.97781,2.30356 -7.24466,-2.03239 -3.00179,-2.47124 -5.92133,-4.49316 -6.48788,-4.49316 -1.35814,0 -6.26746,6.47472 -6.26746,8.26591 0,0.76965 1.8,2.84588 4,4.61385 4.26502,3.42747 4.88867,4.84199 2.53328,5.74584 -0.83812,0.32162 -3.42926,-1.04532 -6.04593,-3.18948 l -4.57921,-3.75232 -3.95407,3.86105 c -2.17474,2.12357 -3.95407,4.5973 -3.95407,5.49716 0,0.89986 2.28932,3.71289 5.08737,6.25118 4.75505,4.31359 5.62366,6.70681 2.4342,6.70681 -0.74822,0 -3.98416,-2.3625 -7.19098,-5.25 z m -20.17184,-16.88091 c -4.37741,-3.49515 -6.20247,-5.5939 -5.89312,-6.77685 0.89451,-3.42062 20.98971,-28.09224 22.88131,-28.09224 3.57971,0 1.81132,3.65832 -7.74543,16.02317 l -9.5985,12.41886 5.11833,4.52899 c 9.31648,8.24374 5.22639,9.8738 -4.76259,1.89807 z m -482.76834,-1.3515 c -7.94489,-4.76255 -13.84844,-16.57222 -11.9886,-23.9824 1.00991,-4.0238 7.26383,-10.24208 12.19468,-12.12519 5.90417,-2.25482 11.02285,-0.79066 16.54654,4.73303 4.34539,4.34539 8.83142,12.85951 8.8472,16.79125 0.0181,4.52176 -3.90323,10.81962 -8.72583,14.01398 -5.82996,3.8616 -11.08599,4.03894 -16.87399,0.56933 z m 15.9483,-5.51012 c 4.37962,-3.84535 5.23235,-7.92806 2.80299,-13.42004 -4.36715,-9.87267 -11.95591,-14.96116 -18.30595,-12.2747 -8.2954,3.50948 -9.88814,11.50806 -3.9851,20.01278 6.24906,9.00325 13.34799,11.07302 19.48806,5.68196 z m 11.78325,-25.36832 c -4.99286,-7.89847 -9.34329,-15.05234 -9.6676,-15.8975 -1.07043,-2.78948 10.03527,-9.74165 15.56172,-9.74165 6.51106,0 10.63372,5.19439 9.49097,11.95825 -0.6281,3.71771 -0.55483,3.82523 4.67743,6.86338 7.90914,4.5925 10.22291,6.67434 9.503,8.55041 -0.96796,2.52247 -3.11089,1.96965 -9.37527,-2.41856 -4.49419,-3.14819 -6.53507,-3.9807 -9.19313,-3.75 -5.60439,0.48641 -5.97009,2.61633 -1.6507,9.61428 3.68955,5.97755 4.09543,9.18224 1.16296,9.18224 -0.78729,0 -5.51651,-6.46238 -10.50938,-14.36085 z m 7.77228,-9.54036 c 1.70817,-1.59566 3.10576,-3.74554 3.10576,-4.77749 0,-3.05944 -2.89295,-6.3213 -5.60636,-6.3213 -3.38704,0 -8.39364,2.71131 -8.39364,4.54555 0,2.2968 4.85037,9.45445 6.40679,9.45445 0.75993,0 2.77929,-1.30554 4.48745,-2.90121 z m 416.77243,20.23454 c -0.36667,-0.36666 -0.66667,-1.26922 -0.66667,-2.00568 0,-2.24799 19.21419,-30.32765 20.75244,-30.32765 3.60213,0 13.89002,9.09566 14.75806,13.04779 1.3654,6.21664 -5.16817,13.93959 -11.80034,13.94847 -1.53441,0.002 -4.55398,-0.89626 -6.71016,-1.99626 -2.15618,-1.1 -4.56634,-2 -5.35592,-2 -0.78957,0 -2.87941,2.25 -4.64408,5 -3.01328,4.69579 -4.76935,5.89731 -6.33333,4.33333 z m 27.01888,-12.50764 c 3.61389,-3.39508 3.14149,-8.09309 -1.14233,-11.36052 -1.90123,-1.45014 -3.93639,-2.34021 -4.52258,-1.97793 -0.58618,0.36228 -2.64344,2.98836 -4.57169,5.83573 l -3.50591,5.17703 2.58424,2.25 c 3.32142,2.89183 8.12593,2.92442 11.15827,0.0757 z m -39.27455,3.80297 c -0.28943,-0.75424 2.46418,-7.05424 6.11913,-14 3.65496,-6.94576 6.14728,-12.62866 5.5385,-12.62866 -0.60879,0 -6.51801,4.50527 -13.13161,10.01171 -10.31564,8.58874 -12.30276,9.86292 -13.98088,8.96482 -1.07588,-0.57579 -1.95254,-1.36857 -1.94815,-1.76171 0.004,-0.39315 0.67939,-6.09772 1.5,-12.67681 0.82061,-6.5791 1.4777,-13.5541 1.46021,-15.5 -0.0292,-3.24835 -0.14644,-3.38671 -1.43198,-1.6899 -0.7701,1.01645 -3.95943,6.75395 -7.0874,12.75 -5.58433,10.70465 -6.87891,12.0718 -9.21706,9.73365 -0.89098,-0.89098 0.63978,-4.62888 6.45001,-15.75 7.49384,-14.34365 9.85422,-18.08176 11.41745,-18.08176 0.43409,0 1.99577,1.0378 3.47039,2.30622 l 2.68114,2.30622 -1.62537,14.20492 c -1.87727,16.40634 -1.8653,16.18264 -0.86634,16.18264 0.41747,0 5.92997,-4.26165 12.25,-9.47034 6.32003,-5.20869 12.22861,-9.48369 13.13018,-9.5 0.90156,-0.0163 2.6638,0.8 3.91607,1.81403 l 2.27686,1.84368 -7.79635,14.90632 c -4.28798,8.19847 -8.24282,15.46881 -8.78851,16.15631 -1.31572,1.65762 -3.67902,1.59148 -4.33629,-0.12134 z M 303.23819,386.88266 c -8.49268,-16.13837 -9.39787,-18.70201 -6.93688,-19.64638 1.17306,-0.45015 2.44305,0.66974 4.57904,4.03785 1.62568,2.56343 3.21583,5.48013 3.53367,6.48156 0.31784,1.00144 0.989,1.82079 1.49146,1.82079 0.98126,0 1.1666,-0.63457 3.4643,-11.86103 1.7748,-8.6716 2.0073,-9.13897 4.54638,-9.13897 2.34148,0 2.34433,-0.48338 -0.059,10 -1.07176,4.675 -1.96021,9.09185 -1.97433,9.81522 -0.0141,0.72337 4.69933,3.52717 10.47433,6.23066 5.775,2.70349 10.5,5.35831 10.5,5.89959 0,0.54129 -0.84048,1.43397 -1.86773,1.98374 -1.45999,0.78137 -3.96831,-0.0136 -11.48984,-3.64164 -5.29216,-2.55268 -9.95839,-4.30494 -10.36941,-3.89392 -0.41103,0.41102 0.7221,3.5281 2.51806,6.92683 3.74472,7.08665 4.08377,9.67952 1.26569,9.67952 -1.48531,0 -3.76537,-3.46255 -9.67572,-14.69382 z m 31.11895,-0.30618 c -1.05644,-1.70935 0.48853,-3 3.59114,-3 4.7746,0 9.75885,-2.55412 10.46356,-5.36193 1.40887,-5.61337 -2.37383,-8.63807 -10.80279,-8.63807 -7.91853,0 -12.75191,-4.21634 -12.75191,-11.12398 0,-5.78011 10.254,-12.416 15.14272,-9.79964 2.95112,1.57939 2.29649,3.92362 -1.09567,3.92362 -6.30366,0 -9.98296,3.47586 -8.52887,8.05728 0.81787,2.57689 4.30944,3.94272 10.07904,3.94272 8.87596,0 13.60278,3.69868 13.60278,10.64402 0,6.88603 -6.36095,12.34584 -14.39098,12.35224 -2.58004,0.002 -4.9691,-0.44626 -5.30902,-0.99626 z m 299.49353,-4.93434 c -8.69011,-2.64341 -12.98036,-7.61739 -12.99474,-15.06566 -0.0202,-10.45501 7.56356,-22.08708 15.34767,-23.54055 6.98998,-1.30519 16.18877,2.80732 19.16863,8.56973 3.19834,6.18491 1.02278,17.43626 -4.7182,24.40106 -4.70085,5.70294 -10.35144,7.59801 -16.80336,5.63542 z m 9.05094,-5.58865 c 4.19335,-2.16847 8.28763,-10.57161 8.38153,-17.20234 0.0616,-4.34823 -0.36199,-5.66166 -2.52342,-7.8247 -3.29338,-3.29583 -9.42655,-4.26462 -13.5381,-2.13845 -3.46383,1.79122 -8.00576,9.5702 -8.90133,15.24535 -0.82226,5.2106 0.75304,8.99471 4.76192,11.43893 3.91878,2.38928 7.82226,2.5482 11.8194,0.48121 z m -280.57492,0.27299 c -2.77378,-7.41365 -10.46955,-31.5645 -10.46955,-32.85553 0,-0.92427 0.67411,-1.93917 1.49801,-2.25533 1.7662,-0.67776 3.74461,2.13919 5.52086,7.86086 2.03078,6.54153 2.23182,6.61451 10.53228,3.82373 4.09687,-1.37745 7.44885,-3.06835 7.44885,-3.75754 0,-0.6892 -0.90665,-3.88831 -2.01478,-7.10915 -1.73968,-5.05646 -1.82105,-6.04978 -0.59596,-7.27487 0.78035,-0.78035 1.87608,-1.13622 2.43495,-0.79081 1.86782,1.15437 12.4958,34.68863 11.3553,35.82913 -2.0134,2.01339 -3.98752,-0.13356 -6.17951,-6.72049 -1.21598,-3.65403 -2.82244,-6.87837 -3.56991,-7.1652 -1.49248,-0.57272 -14.11021,3.33861 -14.90175,4.61935 -0.27136,0.43907 0.61588,4.0597 1.97166,8.04585 1.35578,3.98615 2.22135,7.64184 1.92351,8.12377 -0.81734,1.32247 -4.42105,1.05058 -4.95396,-0.37377 z m 223.77183,-3.76223 c -13.48608,-6.79297 -17.35999,-20.39963 -11.1734,-39.24527 5.93558,-18.08101 21.41378,-26.72398 37.19027,-20.7669 6.41843,2.42355 12.74175,7.73428 12.74175,10.70135 0,1.06743 -0.6031,2.76558 -1.34023,3.77366 -1.26563,1.73086 -1.55783,1.63777 -5.25,-1.67259 -5.65339,-5.06878 -9.59435,-6.77802 -15.62798,-6.77802 -4.05109,0 -6.21063,0.60688 -9.06754,2.5482 -7.02874,4.77615 -12.04377,16.1352 -12.11999,27.4518 -0.0549,8.15175 2.2763,13.22419 7.739,16.83924 3.55161,2.35034 4.90419,2.64024 11.59371,2.48487 4.16517,-0.0967 8.69803,-0.32174 10.07303,-0.5 2.14337,-0.27787 2.4598,0.032 2.21818,2.17199 -0.50413,4.4652 -2.59217,5.47836 -12.00279,5.82402 -8.11087,0.29792 -9.1495,0.10147 -14.97401,-2.83235 z M 401.2534,364.14711 c -8.69298,-3.78414 -13.63325,-22.40394 -8.13819,-30.67275 4.71269,-7.09153 16.63879,-10.08727 23.50107,-5.90328 6.20223,3.78154 10.14085,14.51816 8.74368,23.83515 -1.52207,10.14987 -14.41046,16.96168 -24.10656,12.74088 z m 13.06405,-5.11882 c 4.06878,-1.93076 5.54589,-5.07598 5.51773,-11.74886 -0.0349,-8.25938 -4.11324,-15.4407 -9.74374,-17.15704 -3.09151,-0.94238 -8.43794,0.97642 -11.33725,4.06886 -2.03589,2.17151 -2.37645,3.4855 -2.26031,8.72098 0.30865,13.91356 7.93441,20.80877 17.82357,16.11606 z m 21.88685,-0.69911 c -1.47728,-2.39029 -5.2733,-35.13677 -4.2202,-36.40568 0.54825,-0.6606 3.94692,-1.51702 7.5526,-1.90315 7.92619,-0.84882 12.38916,0.85454 14.88509,5.68115 3.79566,7.34 -0.999,16.12127 -9.54888,17.48845 -5.36913,0.85856 -5.97582,1.87921 -4.94634,8.32146 0.58728,3.67501 0.5151,5.86076 -0.2229,6.75 -1.36905,1.64959 -2.50811,1.67166 -3.49937,0.0678 z m 11.26374,-21.09444 c 3.2657,-2.80903 3.65089,-7.60651 0.85849,-10.69209 -1.46169,-1.61514 -2.84649,-1.9956 -6.41667,-1.7629 l -4.55272,0.29673 0.26145,6 c 0.1438,3.3 0.46718,6.5625 0.71862,7.25 0.75863,2.07429 6.20752,1.42279 9.13083,-1.09174 z m 92.20803,18.59174 c -0.82007,-0.9625 -4.09817,-7.96914 -7.28467,-15.57031 -3.1865,-7.60118 -6.14317,-13.45118 -6.57039,-13 -0.42721,0.45117 -1.31096,6.67031 -1.96387,13.82031 -0.65291,7.15 -1.56477,13.39725 -2.02634,13.88278 -1.69885,1.78703 -3.97387,-0.28516 -3.9539,-3.6014 0.0316,-5.2508 2.87295,-31.79876 3.51439,-32.83663 0.85439,-1.38244 6.21244,-1.15391 7.15683,0.30525 0.44496,0.6875 3.29509,7.1 6.33361,14.25 3.03853,7.15 5.96353,13 6.5,13 0.53648,0 1.49806,-5.30911 2.13685,-11.79803 0.63879,-6.48891 1.41217,-12.45141 1.71862,-13.25 0.64088,-1.67012 3.20136,-1.93827 4.13184,-0.43272 0.61486,0.99487 -2.12381,31.75782 -3.13642,35.23075 -0.29306,1.00508 -1.47976,1.75 -2.78788,1.75 -1.25269,0 -2.94859,-0.7875 -3.76867,-1.75 z m -54.36084,-2.12991 c -4.97087,-2.25794 -7.2405,-5.5757 -8.50921,-12.43881 -1.15657,-6.25648 0.17714,-14.9404 2.86916,-18.68128 0.98947,-1.375 3.7977,-3.54461 6.2405,-4.82135 8.13711,-4.25291 18.69918,-1.41543 22.56608,6.06234 2.14592,4.14974 2.85901,13.29338 1.4445,18.52214 -2.96429,10.95759 -14.13844,16.11399 -24.61103,11.35696 z m 14.32512,-4.68079 c 3.51155,-2.45959 5.21679,-6.81505 5.21679,-13.32454 0,-10.60336 -3.27311,-15.11476 -10.96606,-15.11476 -7.99674,0 -12.03394,5.03226 -12.03394,15 0,6.07097 1.94228,11.14573 5.11687,13.36931 2.95201,2.06767 9.76054,2.10529 12.66634,0.07 z"
       id="path4147"
       inkscape:connector-curvature="0" />
  </g>
</svg>
